<svg width="576px" height="128px" version="1.1" xmlns="http://www.w3.org/2000/svg" xmlns:xlink="http://www.w3.org/1999/xlink" xml:space="preserve" xmlns:serif="http://www.serif.com/" style="fill-rule:evenodd;clip-rule:evenodd;stroke-linejoin:round;stroke-miterlimit:2;"><rect id="backed-logo-a-white" x="0" y="0" width="576" height="128" style="fill:none;"/><clipPath id="_clip1"><rect x="0" y="0" width="576" height="128"/></clipPath><g clip-path="url(#_clip1)"><path d="M393.999,10.5l0,64l-8,0l0,-64l8,0Zm0,32l32.564,-32l11.413,0l-32.563,32l32.563,32l-11.413,0l-32.564,-32Zm-184,-32c9.935,0 18,8.066 18,18c0,5.211 -2.219,9.908 -5.763,13.196c4.689,3.251 7.763,8.671 7.763,14.804c0,9.934 -8.065,18 -18,18l-36,0l0,-64l34,0Zm-26,56l28,0c5.519,0 10,-4.481 10,-10c0,-5.519 -4.481,-10 -10,-10l-28,0l0,20Zm0,-28l26,0c5.519,0 10,-4.481 10,-10c0,-5.519 -4.481,-10 -10,-10l-26,0l0,20Zm73.944,16l-8.285,20l-8.659,0l26.51,-64l10.981,0l26.509,64l-8.659,0l-8.284,-20l-30.113,0Zm15.056,-36.35l-11.743,28.35l23.486,0l-11.743,-28.35Zm95,45.507c-5.865,6.648 -14.446,10.843 -24,10.843c-17.661,0 -32,-14.339 -32,-32c0,-17.661 14.339,-32 32,-32c9.554,0 18.135,4.195 24,10.843l-5.716,5.617c-4.403,-5.175 -10.963,-8.46 -18.284,-8.46c-13.246,0 -24,10.754 -24,24c0,13.246 10.754,24 24,24c7.321,0 13.881,-3.285 18.284,-8.46l5.716,5.617Zm133.977,-53.157l0,8l-40,0l0,20l24,0l0,8l-24,0l0,20l40,0l0,8l-48,0l0,-64l48,0Zm42.023,0c17.661,0 32,14.339 32,32c0,17.661 -14.339,32 -32,32l-24,0l0,-64l24,0Zm-16,56l16,0c13.246,0 24,-10.754 24,-24c0,-13.246 -10.754,-24 -24,-24l-16,0l0,48Z" style="fill:#fff;"/><path d="M450.233,92.539c0.866,1.288 1.598,2.721 2.195,4.301c1.135,3.003 1.702,6.232 1.702,9.687c0,3.374 -0.537,6.518 -1.612,9.43c-0.788,2.136 -1.806,3.997 -3.053,5.582l-3.108,-0c1.485,-1.809 2.655,-3.84 3.51,-6.094c1.074,-2.832 1.612,-5.805 1.612,-8.918c-0,-3.194 -0.568,-6.272 -1.703,-9.235c-0.662,-1.73 -1.515,-3.314 -2.557,-4.753l3.014,-0Zm-43.714,29c-1.247,-1.585 -2.264,-3.446 -3.053,-5.582c-1.074,-2.912 -1.612,-6.056 -1.612,-9.43c0,-3.455 0.568,-6.684 1.703,-9.687c0.597,-1.58 1.328,-3.013 2.195,-4.301l3.014,-0c-1.043,1.439 -1.895,3.023 -2.558,4.753c-1.135,2.963 -1.702,6.041 -1.702,9.235c-0,3.113 0.537,6.086 1.612,8.918c0.855,2.254 2.025,4.285 3.51,6.094l-3.109,-0Zm26.791,-22.756l0,7.021l7.653,-0l0,2.259l-7.653,0l0,7.232l8.557,-0l0,2.259l-11.299,0l0,-21.031l11.299,0l0,2.26l-8.557,0Zm-8.135,-2.229l0,15.517c0,1.727 -0.532,3.108 -1.597,4.143c-1.064,1.034 -2.47,1.551 -4.218,1.551c-1.768,0 -3.184,-0.527 -4.248,-1.582c-1.065,-1.054 -1.597,-2.495 -1.597,-4.323l2.742,-0c0.02,1.024 0.286,1.858 0.798,2.501c0.512,0.642 1.281,0.964 2.305,0.964c1.024,-0 1.788,-0.307 2.29,-0.919c0.502,-0.613 0.753,-1.391 0.753,-2.335l0,-15.517l2.772,-0Zm-238.66,10.184c0.763,0.12 1.461,0.431 2.094,0.934c0.632,0.502 1.135,1.124 1.506,1.868c0.372,0.743 0.558,1.536 0.558,2.38c-0,1.065 -0.272,2.024 -0.814,2.877c-0.542,0.854 -1.331,1.527 -2.365,2.019c-1.035,0.492 -2.255,0.738 -3.661,0.738l-7.834,0l0,-21l7.533,-0c1.426,-0 2.641,0.236 3.645,0.708c1.005,0.472 1.758,1.109 2.26,1.913c0.502,0.803 0.753,1.707 0.753,2.712c0,1.245 -0.336,2.274 -1.009,3.088c-0.673,0.813 -1.562,1.401 -2.666,1.763Zm-2.923,8.557c1.366,-0 2.43,-0.322 3.194,-0.965c0.763,-0.642 1.145,-1.536 1.145,-2.681c-0,-1.165 -0.402,-2.084 -1.206,-2.757c-0.803,-0.673 -1.878,-1.009 -3.223,-1.009l-4.761,-0l0,7.412l4.851,-0Zm-4.851,-9.672l4.61,-0c1.285,-0 2.28,-0.302 2.983,-0.904c0.703,-0.603 1.054,-1.436 1.054,-2.501c0,-1.065 -0.351,-1.898 -1.054,-2.501c-0.703,-0.602 -1.718,-0.904 -3.043,-0.904l-4.55,0l0,6.81Zm14.704,3.615c-0,-1.687 0.341,-3.168 1.024,-4.444c0.683,-1.275 1.622,-2.265 2.817,-2.968c1.195,-0.703 2.526,-1.054 3.992,-1.054c1.447,-0 2.702,0.311 3.767,0.934c1.064,0.623 1.858,1.406 2.38,2.35l-0,-3.013l2.772,-0l-0,16.511l-2.772,0l-0,-3.073c-0.542,0.964 -1.351,1.763 -2.426,2.395c-1.074,0.633 -2.325,0.949 -3.751,0.949c-1.466,0 -2.792,-0.361 -3.977,-1.084c-1.185,-0.723 -2.119,-1.738 -2.802,-3.043c-0.683,-1.306 -1.024,-2.792 -1.024,-4.46Zm13.98,0.031c-0,-1.246 -0.251,-2.331 -0.753,-3.255c-0.503,-0.924 -1.18,-1.632 -2.034,-2.124c-0.854,-0.492 -1.793,-0.738 -2.817,-0.738c-1.025,0 -1.959,0.241 -2.802,0.723c-0.844,0.482 -1.517,1.185 -2.019,2.109c-0.502,0.924 -0.753,2.009 -0.753,3.254c-0,1.266 0.251,2.366 0.753,3.3c0.502,0.934 1.175,1.647 2.019,2.139c0.843,0.492 1.777,0.738 2.802,0.738c1.024,0 1.963,-0.246 2.817,-0.738c0.854,-0.492 1.531,-1.205 2.034,-2.139c0.502,-0.934 0.753,-2.024 0.753,-3.269Zm6.387,-0c0,-1.708 0.342,-3.199 1.025,-4.475c0.683,-1.275 1.632,-2.265 2.847,-2.968c1.215,-0.703 2.606,-1.054 4.173,-1.054c2.029,-0 3.701,0.492 5.017,1.476c1.316,0.984 2.184,2.35 2.606,4.098l-2.953,-0c-0.281,-1.004 -0.828,-1.798 -1.642,-2.38c-0.813,-0.583 -1.823,-0.874 -3.028,-0.874c-1.567,-0 -2.832,0.537 -3.796,1.612c-0.964,1.074 -1.446,2.596 -1.446,4.565c-0,1.988 0.482,3.525 1.446,4.609c0.964,1.085 2.229,1.627 3.796,1.627c1.205,0 2.21,-0.281 3.013,-0.843c0.804,-0.563 1.356,-1.366 1.657,-2.411l2.953,0c-0.442,1.688 -1.326,3.039 -2.651,4.053c-1.326,1.014 -2.983,1.521 -4.972,1.521c-1.567,0 -2.958,-0.351 -4.173,-1.054c-1.215,-0.703 -2.164,-1.697 -2.847,-2.983c-0.683,-1.286 -1.025,-2.792 -1.025,-4.519Zm28.534,8.285l-6.478,-7.291l-0,7.291l-2.742,0l-0,-22.296l2.742,0l-0,13.107l6.357,-7.322l3.827,-0l-7.774,8.226l7.804,8.285l-3.736,0Zm21.362,-8.888c-0,0.522 -0.03,1.075 -0.09,1.657l-13.197,0c0.1,1.627 0.657,2.898 1.672,3.812c1.014,0.913 2.244,1.37 3.691,1.37c1.185,0 2.174,-0.276 2.968,-0.828c0.793,-0.553 1.35,-1.291 1.672,-2.215l2.952,0c-0.441,1.587 -1.325,2.878 -2.651,3.872c-1.326,0.994 -2.973,1.491 -4.941,1.491c-1.567,0 -2.968,-0.351 -4.203,-1.054c-1.236,-0.703 -2.205,-1.702 -2.908,-2.998c-0.703,-1.296 -1.055,-2.797 -1.055,-4.504c0,-1.708 0.342,-3.204 1.025,-4.49c0.683,-1.285 1.642,-2.275 2.877,-2.968c1.236,-0.693 2.657,-1.039 4.264,-1.039c1.566,-0 2.952,0.341 4.158,1.024c1.205,0.683 2.134,1.622 2.787,2.817c0.653,1.196 0.979,2.546 0.979,4.053Zm-2.832,-0.573c-0,-1.044 -0.231,-1.943 -0.693,-2.696c-0.462,-0.753 -1.09,-1.326 -1.883,-1.718c-0.794,-0.391 -1.673,-0.587 -2.637,-0.587c-1.386,-0 -2.566,0.442 -3.54,1.326c-0.974,0.883 -1.532,2.109 -1.672,3.675l10.425,0Zm5.423,1.145c0,-1.687 0.342,-3.168 1.025,-4.444c0.682,-1.275 1.622,-2.265 2.817,-2.968c1.195,-0.703 2.536,-1.054 4.022,-1.054c1.286,-0 2.481,0.296 3.586,0.889c1.104,0.592 1.948,1.371 2.53,2.335l0,-8.738l2.772,0l0,22.296l-2.772,0l0,-3.103c-0.542,0.984 -1.345,1.793 -2.41,2.425c-1.065,0.633 -2.31,0.949 -3.736,0.949c-1.466,0 -2.797,-0.361 -3.992,-1.084c-1.195,-0.723 -2.135,-1.738 -2.817,-3.043c-0.683,-1.306 -1.025,-2.792 -1.025,-4.46Zm13.98,0.031c0,-1.246 -0.251,-2.331 -0.753,-3.255c-0.502,-0.924 -1.18,-1.632 -2.034,-2.124c-0.853,-0.492 -1.792,-0.738 -2.817,-0.738c-1.024,0 -1.958,0.241 -2.802,0.723c-0.843,0.482 -1.516,1.185 -2.019,2.109c-0.502,0.924 -0.753,2.009 -0.753,3.254c0,1.266 0.251,2.366 0.753,3.3c0.503,0.934 1.176,1.647 2.019,2.139c0.844,0.492 1.778,0.738 2.802,0.738c1.025,0 1.964,-0.246 2.817,-0.738c0.854,-0.492 1.532,-1.205 2.034,-2.139c0.502,-0.934 0.753,-2.024 0.753,-3.269Zm27.871,3.615l-9.16,0l-1.687,4.67l-2.893,0l7.593,-20.88l3.164,0l7.563,20.88l-2.893,0l-1.687,-4.67Zm-0.784,-2.229l-3.796,-10.606l-3.796,10.606l7.592,-0Zm14.523,7.17c-1.265,0 -2.4,-0.215 -3.405,-0.647c-1.004,-0.432 -1.797,-1.035 -2.38,-1.808c-0.582,-0.773 -0.904,-1.662 -0.964,-2.667l2.832,0c0.081,0.824 0.467,1.497 1.16,2.019c0.693,0.522 1.602,0.783 2.727,0.783c1.045,0 1.868,-0.231 2.471,-0.693c0.602,-0.462 0.904,-1.044 0.904,-1.747c-0,-0.723 -0.322,-1.261 -0.965,-1.612c-0.642,-0.352 -1.637,-0.698 -2.982,-1.04c-1.226,-0.321 -2.225,-0.647 -2.998,-0.979c-0.774,-0.331 -1.437,-0.823 -1.989,-1.476c-0.552,-0.653 -0.829,-1.512 -0.829,-2.576c0,-0.844 0.252,-1.617 0.754,-2.32c0.502,-0.703 1.215,-1.261 2.139,-1.673c0.924,-0.411 1.978,-0.617 3.164,-0.617c1.827,-0 3.304,0.462 4.429,1.386c1.125,0.924 1.727,2.189 1.808,3.796l-2.742,0c-0.061,-0.864 -0.407,-1.557 -1.04,-2.079c-0.633,-0.522 -1.481,-0.783 -2.546,-0.783c-0.984,-0 -1.767,0.211 -2.35,0.633c-0.582,0.421 -0.874,0.974 -0.874,1.657c0,0.542 0.176,0.989 0.528,1.341c0.351,0.351 0.793,0.632 1.325,0.843c0.533,0.211 1.271,0.447 2.215,0.708c1.185,0.322 2.149,0.638 2.892,0.949c0.744,0.312 1.381,0.779 1.914,1.401c0.532,0.623 0.808,1.437 0.828,2.441c0,0.904 -0.251,1.717 -0.753,2.44c-0.502,0.724 -1.21,1.291 -2.124,1.703c-0.914,0.412 -1.964,0.617 -3.149,0.617Zm15.728,0c-1.265,0 -2.4,-0.215 -3.405,-0.647c-1.004,-0.432 -1.797,-1.035 -2.38,-1.808c-0.582,-0.773 -0.904,-1.662 -0.964,-2.667l2.832,0c0.08,0.824 0.467,1.497 1.16,2.019c0.693,0.522 1.602,0.783 2.727,0.783c1.044,0 1.868,-0.231 2.471,-0.693c0.602,-0.462 0.904,-1.044 0.904,-1.747c-0,-0.723 -0.322,-1.261 -0.965,-1.612c-0.642,-0.352 -1.637,-0.698 -2.983,-1.04c-1.225,-0.321 -2.224,-0.647 -2.997,-0.979c-0.774,-0.331 -1.437,-0.823 -1.989,-1.476c-0.552,-0.653 -0.829,-1.512 -0.829,-2.576c0,-0.844 0.251,-1.617 0.754,-2.32c0.502,-0.703 1.215,-1.261 2.139,-1.673c0.924,-0.411 1.978,-0.617 3.164,-0.617c1.827,-0 3.304,0.462 4.429,1.386c1.124,0.924 1.727,2.189 1.807,3.796l-2.741,0c-0.061,-0.864 -0.407,-1.557 -1.04,-2.079c-0.633,-0.522 -1.481,-0.783 -2.546,-0.783c-0.984,-0 -1.768,0.211 -2.35,0.633c-0.583,0.421 -0.874,0.974 -0.874,1.657c0,0.542 0.176,0.989 0.527,1.341c0.352,0.351 0.794,0.632 1.326,0.843c0.532,0.211 1.271,0.447 2.215,0.708c1.185,0.322 2.149,0.638 2.892,0.949c0.743,0.312 1.381,0.779 1.914,1.401c0.532,0.623 0.808,1.437 0.828,2.441c0,0.904 -0.251,1.717 -0.753,2.44c-0.502,0.724 -1.21,1.291 -2.124,1.703c-0.914,0.412 -1.964,0.617 -3.149,0.617Zm24.948,-9.159c-0,0.522 -0.03,1.075 -0.091,1.657l-13.197,0c0.101,1.627 0.658,2.898 1.673,3.812c1.014,0.913 2.244,1.37 3.691,1.37c1.185,0 2.174,-0.276 2.967,-0.828c0.794,-0.553 1.351,-1.291 1.673,-2.215l2.952,0c-0.442,1.587 -1.325,2.878 -2.651,3.872c-1.326,0.994 -2.973,1.491 -4.941,1.491c-1.567,0 -2.968,-0.351 -4.204,-1.054c-1.235,-0.703 -2.204,-1.702 -2.907,-2.998c-0.703,-1.296 -1.055,-2.797 -1.055,-4.504c0,-1.708 0.342,-3.204 1.025,-4.49c0.683,-1.285 1.642,-2.275 2.877,-2.968c1.235,-0.693 2.657,-1.039 4.264,-1.039c1.566,-0 2.952,0.341 4.158,1.024c1.205,0.683 2.134,1.622 2.787,2.817c0.652,1.196 0.979,2.546 0.979,4.053Zm-2.832,-0.573c-0,-1.044 -0.231,-1.943 -0.693,-2.696c-0.462,-0.753 -1.09,-1.326 -1.884,-1.718c-0.793,-0.391 -1.672,-0.587 -2.636,-0.587c-1.386,-0 -2.566,0.442 -3.54,1.326c-0.974,0.883 -1.532,2.109 -1.672,3.675l10.425,0Zm9.792,-4.79l-0,9.732c-0,0.803 0.171,1.371 0.512,1.702c0.342,0.332 0.934,0.497 1.778,0.497l2.018,0l0,2.32l-2.47,0c-1.527,0 -2.672,-0.351 -3.435,-1.054c-0.763,-0.703 -1.145,-1.858 -1.145,-3.465l0,-9.732l-2.139,-0l-0,-2.26l2.139,-0l0,-4.158l2.742,0l-0,4.158l4.308,-0l0,2.26l-4.308,-0Zm13.468,14.522c-1.265,0 -2.4,-0.215 -3.405,-0.647c-1.004,-0.432 -1.797,-1.035 -2.38,-1.808c-0.582,-0.773 -0.904,-1.662 -0.964,-2.667l2.832,0c0.08,0.824 0.467,1.497 1.16,2.019c0.693,0.522 1.602,0.783 2.727,0.783c1.044,0 1.868,-0.231 2.471,-0.693c0.602,-0.462 0.903,-1.044 0.903,-1.747c0,-0.723 -0.321,-1.261 -0.964,-1.612c-0.642,-0.352 -1.637,-0.698 -2.983,-1.04c-1.225,-0.321 -2.224,-0.647 -2.998,-0.979c-0.773,-0.331 -1.436,-0.823 -1.988,-1.476c-0.553,-0.653 -0.829,-1.512 -0.829,-2.576c0,-0.844 0.251,-1.617 0.754,-2.32c0.502,-0.703 1.215,-1.261 2.139,-1.673c0.924,-0.411 1.978,-0.617 3.163,-0.617c1.828,-0 3.305,0.462 4.43,1.386c1.124,0.924 1.727,2.189 1.807,3.796l-2.741,0c-0.061,-0.864 -0.407,-1.557 -1.04,-2.079c-0.633,-0.522 -1.481,-0.783 -2.546,-0.783c-0.984,-0 -1.768,0.211 -2.35,0.633c-0.583,0.421 -0.874,0.974 -0.874,1.657c0,0.542 0.176,0.989 0.527,1.341c0.352,0.351 0.794,0.632 1.326,0.843c0.532,0.211 1.271,0.447 2.215,0.708c1.185,0.322 2.149,0.638 2.892,0.949c0.743,0.312 1.381,0.779 1.913,1.401c0.533,0.623 0.809,1.437 0.829,2.441c0,0.904 -0.251,1.717 -0.753,2.44c-0.502,0.724 -1.21,1.291 -2.124,1.703c-0.914,0.412 -1.964,0.617 -3.149,0.617Zm87.498,-2.5l7.352,-0l-0,2.229l-10.094,0l-0,-21l2.742,-0l-0,18.771Zm11.69,-16.964c-0.522,0 -0.964,-0.18 -1.325,-0.542c-0.362,-0.361 -0.543,-0.803 -0.543,-1.326c0,-0.522 0.181,-0.964 0.543,-1.325c0.361,-0.362 0.803,-0.543 1.325,-0.543c0.502,0 0.929,0.181 1.281,0.543c0.351,0.361 0.527,0.803 0.527,1.325c0,0.523 -0.176,0.965 -0.527,1.326c-0.352,0.362 -0.779,0.542 -1.281,0.542Zm1.326,2.682l0,16.511l-2.742,0l0,-16.511l2.742,-0Zm24.526,-0.301c1.286,-0 2.43,0.266 3.435,0.798c1.004,0.532 1.798,1.331 2.38,2.395c0.583,1.065 0.874,2.361 0.874,3.887l-0,9.732l-2.712,0l0,-9.34c0,-1.647 -0.407,-2.908 -1.22,-3.781c-0.814,-0.874 -1.913,-1.311 -3.299,-1.311c-1.427,-0 -2.561,0.457 -3.405,1.371c-0.844,0.914 -1.266,2.235 -1.266,3.962l0,9.099l-2.711,0l-0,-9.34c-0,-1.647 -0.407,-2.908 -1.221,-3.781c-0.813,-0.874 -1.913,-1.311 -3.299,-1.311c-1.426,-0 -2.561,0.457 -3.404,1.371c-0.844,0.914 -1.266,2.235 -1.266,3.962l0,9.099l-2.742,0l0,-16.511l2.742,-0l0,2.38c0.542,-0.863 1.271,-1.526 2.184,-1.988c0.914,-0.462 1.924,-0.693 3.029,-0.693c1.386,-0 2.611,0.311 3.675,0.934c1.065,0.622 1.858,1.536 2.381,2.742c0.462,-1.165 1.225,-2.069 2.29,-2.712c1.064,-0.643 2.249,-0.964 3.555,-0.964Zm12.594,-2.381c-0.522,0 -0.964,-0.18 -1.325,-0.542c-0.362,-0.361 -0.543,-0.803 -0.543,-1.326c0,-0.522 0.181,-0.964 0.543,-1.325c0.361,-0.362 0.803,-0.543 1.325,-0.543c0.503,0 0.929,0.181 1.281,0.543c0.351,0.361 0.527,0.803 0.527,1.325c0,0.523 -0.176,0.965 -0.527,1.326c-0.352,0.362 -0.778,0.542 -1.281,0.542Zm1.326,2.682l0,16.511l-2.742,0l0,-16.511l2.742,-0Zm8.015,2.26l-0,9.732c-0,0.803 0.17,1.371 0.512,1.702c0.341,0.332 0.934,0.497 1.778,0.497l2.018,0l0,2.32l-2.47,0c-1.527,0 -2.672,-0.351 -3.435,-1.054c-0.764,-0.703 -1.145,-1.858 -1.145,-3.465l-0,-9.732l-2.139,-0l-0,-2.26l2.139,-0l-0,-4.158l2.742,0l-0,4.158l4.308,-0l0,2.26l-4.308,-0Zm22.688,5.363c-0,0.522 -0.03,1.075 -0.091,1.657l-13.197,0c0.101,1.627 0.658,2.898 1.672,3.812c1.015,0.913 2.245,1.37 3.691,1.37c1.186,0 2.175,-0.276 2.968,-0.828c0.794,-0.553 1.351,-1.291 1.672,-2.215l2.953,0c-0.442,1.587 -1.326,2.878 -2.651,3.872c-1.326,0.994 -2.973,1.491 -4.942,1.491c-1.566,0 -2.967,-0.351 -4.203,-1.054c-1.235,-0.703 -2.204,-1.702 -2.907,-2.998c-0.703,-1.296 -1.055,-2.797 -1.055,-4.504c0,-1.708 0.342,-3.204 1.025,-4.49c0.683,-1.285 1.642,-2.275 2.877,-2.968c1.235,-0.693 2.656,-1.039 4.263,-1.039c1.567,-0 2.953,0.341 4.158,1.024c1.206,0.683 2.135,1.622 2.787,2.817c0.653,1.196 0.98,2.546 0.98,4.053Zm-2.833,-0.573c0,-1.044 -0.231,-1.943 -0.693,-2.696c-0.462,-0.753 -1.089,-1.326 -1.883,-1.718c-0.793,-0.391 -1.672,-0.587 -2.636,-0.587c-1.386,-0 -2.566,0.442 -3.54,1.326c-0.975,0.883 -1.532,2.109 -1.673,3.675l10.425,0Zm5.424,1.145c-0,-1.687 0.341,-3.168 1.024,-4.444c0.683,-1.275 1.622,-2.265 2.817,-2.968c1.196,-0.703 2.536,-1.054 4.023,-1.054c1.285,-0 2.48,0.296 3.585,0.889c1.105,0.592 1.949,1.371 2.531,2.335l0,-8.738l2.772,0l0,22.296l-2.772,0l0,-3.103c-0.542,0.984 -1.346,1.793 -2.41,2.425c-1.065,0.633 -2.31,0.949 -3.736,0.949c-1.467,0 -2.797,-0.361 -3.993,-1.084c-1.195,-0.723 -2.134,-1.738 -2.817,-3.043c-0.683,-1.306 -1.024,-2.792 -1.024,-4.46Zm13.98,0.031c0,-1.246 -0.251,-2.331 -0.753,-3.255c-0.502,-0.924 -1.18,-1.632 -2.034,-2.124c-0.854,-0.492 -1.793,-0.738 -2.817,-0.738c-1.024,0 -1.958,0.241 -2.802,0.723c-0.844,0.482 -1.517,1.185 -2.019,2.109c-0.502,0.924 -0.753,2.009 -0.753,3.254c-0,1.266 0.251,2.366 0.753,3.3c0.502,0.934 1.175,1.647 2.019,2.139c0.844,0.492 1.778,0.738 2.802,0.738c1.024,0 1.963,-0.246 2.817,-0.738c0.854,-0.492 1.532,-1.205 2.034,-2.139c0.502,-0.934 0.753,-2.024 0.753,-3.269Z" style="fill:#fff;"/><g><g><path d="M0.098,60.361c0.535,-9.59 3.244,-19.2 8.323,-28.094c0.051,-0.089 0.102,-0.178 0.153,-0.266c0.051,-0.089 0.102,-0.177 0.154,-0.265c6.667,-11.424 16.346,-20.021 27.45,-25.366c11.95,-5.752 25.551,-7.738 38.826,-5.428c7.199,1.253 14.303,3.769 20.995,7.633c1.052,0.607 2.079,1.24 3.083,1.896c-13.024,-6.121 -28.809,-1.334 -36.135,11.354l-37.008,64.1c-13.713,-0.999 -24.698,-11.892 -25.841,-25.564Z" style="fill:url(#_Linear2);"/><path d="M99.102,10.48c8.038,5.258 15.006,12.409 20.169,21.255c0.051,0.088 0.103,0.177 0.154,0.265c0.051,0.089 0.102,0.177 0.152,0.266c6.56,11.486 9.166,24.167 8.243,36.456c-0.994,13.225 -6.074,25.996 -14.713,36.338c-4.684,5.608 -10.415,10.502 -17.108,14.366c-1.051,0.607 -2.113,1.18 -3.183,1.721c11.813,-8.219 15.56,-24.282 8.235,-36.97l-37.009,-64.101c7.722,-11.375 22.648,-15.442 35.06,-9.596Z" style="fill:url(#_Linear3);"/><path d="M92.798,121.161c-8.572,4.331 -18.249,6.79 -28.492,6.838c-0.102,0.001 -0.204,0.001 -0.306,0.001c-0.102,0 -0.204,-0 -0.307,-0.001c-13.227,-0.062 -25.512,-4.145 -35.693,-11.089c-10.956,-7.473 -19.476,-18.259 -24.113,-30.911c-2.514,-6.861 -3.887,-14.271 -3.887,-21.999c-0,-1.214 0.034,-2.42 0.101,-3.617c1.211,14.34 13.249,25.616 27.899,25.616l74.017,0c5.991,12.375 2.05,27.335 -9.219,35.162Z" style="fill:url(#_Linear4);"/></g></g></g><defs><linearGradient id="_Linear2" x1="0" y1="0" x2="1" y2="0" gradientUnits="userSpaceOnUse" gradientTransform="matrix(38.1039,-65.8481,65.8481,38.1039,25.9389,85.9253)"><stop offset="0" style="stop-color:#fff;stop-opacity:0.5"/><stop offset="1" style="stop-color:#fff;stop-opacity:1"/></linearGradient><linearGradient id="_Linear3" x1="0" y1="0" x2="1" y2="0" gradientUnits="userSpaceOnUse" gradientTransform="matrix(37.9738,65.9222,-65.9222,37.9738,64.0427,20.0772)"><stop offset="0" style="stop-color:#fff;stop-opacity:0.5"/><stop offset="1" style="stop-color:#fff;stop-opacity:1"/></linearGradient><linearGradient id="_Linear4" x1="0" y1="0" x2="1" y2="0" gradientUnits="userSpaceOnUse" gradientTransform="matrix(76.0772,0.0748611,-0.0748611,76.0772,25.9393,85.9246)"><stop offset="0" style="stop-color:#fff;stop-opacity:1"/><stop offset="1" style="stop-color:#fff;stop-opacity:0.5"/></linearGradient></defs></svg>
