<svg xmlns="http://www.w3.org/2000/svg" viewBox="0 0 120 36" width="120" height="36"><path d="m12.293 10.613h-.056.055zm0 0h7.305l7.532 7.484c.49.486.492 1.278.005 1.767l-9.659 9.708h-7.583l2.292-2.229 8.418-8.365zm34.492 6.855c1.152.449 2.061 1.087 2.708 1.898.719.908 1.085 2.029 1.085 3.332 0 2.14-.777 3.84-2.308 5.055-1.519 1.204-3.62 1.814-6.244 1.814h-9.37v-23.12h9.01c2.491 0 4.49.539 5.943 1.604 1.471 1.078 2.217 2.635 2.217 4.631 0 1.066-.303 2.04-.9 2.892-.524.749-1.243 1.384-2.141 1.894zm-2.209 7.148v.001c.648-.519.963-1.209.963-2.11 0-.857-.314-1.514-.959-2.012-.652-.499-1.643-.754-2.947-.754h-4.101v5.658h4.101c1.304 0 2.295-.263 2.943-.783zm-7.044-14.002v4.929h3.742c1.173 0 2.06-.227 2.635-.675.569-.443.845-1.053.845-1.805s-.276-1.332-.845-1.774c-.575-.448-1.462-.675-2.635-.675zm19.631 1.664v17.287h-4.908v-17.287zm48.476 2.6c.777.925 1.339 2.009 1.673 3.224.331 1.211.387 2.532.167 3.926l-.025.154h-12.354c.073.581.196 1.104.37 1.559.289.766.73 1.355 1.306 1.754.575.398 1.288.601 2.12.601.96 0 1.76-.223 2.38-.663.525-.373.891-.902 1.151-1.524h4.941c-.527 1.827-1.496 3.287-2.905 4.322-1.462 1.075-3.302 1.62-5.469 1.62-1.765 0-3.341-.376-4.682-1.116-1.343-.744-2.396-1.807-3.128-3.163-.731-1.352-1.102-2.999-1.102-4.713s.382-3.259 1.136-4.59c.754-1.332 1.81-2.394 3.142-3.159 1.329-.763 2.865-1.149 4.569-1.149 1.389 0 2.674.257 3.817.762 1.143.506 2.117 1.23 2.893 2.155zm-10.46 4.103h7.123c-.071-.996-.408-1.835-1.002-2.449-.626-.646-1.457-.974-2.468-.974-.808 0-1.498.201-2.053.6-.558.399-.992.996-1.294 1.771-.129.334-.231.7-.306 1.052zm-37.913-12.534v4.166h-5.113v-4.166zm26.877 7.793v-1.962h4.515v16.316c0 2.304-.763 4.136-2.269 5.444-1.497 1.301-3.589 1.962-6.217 1.962-1.565 0-2.976-.266-4.191-.791-1.227-.53-2.198-1.298-2.889-2.28-.616-.877-1.052-1.878-1.095-3.362h4.731c.096 1.061.506 1.562.975 1.944.574.466 1.394.703 2.436.703 1.21 0 2.13-.302 2.735-.898.603-.597.91-1.493.91-2.659v-1.882c-.457.596-1.037 1.085-1.728 1.454-.874.467-1.871.703-2.963.703-1.446 0-2.766-.372-3.923-1.106-1.155-.733-2.079-1.753-2.745-3.033-.665-1.276-1.002-2.676-1.002-4.346 0-1.669.321-3.157.952-4.424.633-1.27 1.524-2.276 2.647-2.988 1.125-.713 2.44-1.074 3.907-1.074 1.197 0 2.269.224 3.185.667.768.374 1.448.914 2.029 1.612zm-.864 8.504v-.001c.313-.648.471-1.41.471-2.266 0-1.32-.348-2.389-1.034-3.175-.68-.78-1.647-1.175-2.741-1.175s-1.983.389-2.642 1.157c-.665.776-1.002 1.839-1.002 3.163 0 1.323.337 2.387 1.002 3.161.668.779 1.531 1.157 2.642 1.157.769 0 1.44-.178 1.996-.526.557-.349.996-.853 1.308-1.495zm36.084-6.331h-3.544l.008 5.856c0 2.223-.114 3.421 1.939 3.421h1.44v3.876l-2.901.057c-4.619.085-5.361-2.68-5.361-6.442v-6.768h-3.026v-4.134h3.026v-5.832h4.875v5.832h3.544zm-49.132 0h-3.543l.008 5.856c0 2.223-.114 3.421 1.939 3.421h1.439v3.876l-2.9.057c-4.62.085-5.361-2.68-5.361-6.442v-6.768h-3.026v-4.134h3.026v-5.832h4.876v5.832h3.542zm-55.024 2.546h-7.307l-7.531-7.483c-.49-.487-.492-1.279-.005-1.768l9.658-9.708h7.584l-2.292 2.229-8.419 8.365z" fill="FFFFFF"></path></svg>
