<svg width="110" height="36" viewBox="0 0 110 36" fill="none" xmlns="http://www.w3.org/2000/svg">
<g clip-path="url(#clip0_582_37598)">
<path d="M8.39261 10.1029C8.66142 10.0116 8.96009 10.1942 8.96009 10.4985V13.0852C8.96009 13.2373 8.96009 13.7851 8.96009 13.7851C8.96009 13.7851 9.34836 13.2678 9.40809 13.1461C10.8118 11.168 12.6636 10.1638 14.9036 10.1638C17.1436 10.1638 19.1149 11.1376 20.6679 13.0852C22.221 15.0328 22.9976 17.4673 22.9976 20.3887C22.9976 23.31 22.2509 25.6228 20.7575 27.4182C19.2642 29.2441 17.3527 30.1266 14.9932 30.1266C12.7831 30.1266 11.0209 29.2745 9.70676 27.5704L9.40809 27.2052C9.40809 27.2052 9.25876 27.0226 9.19902 26.9922C9.13929 26.9618 9.10942 26.9313 9.07955 26.9009C8.98995 27.1139 8.96009 27.2661 8.96009 27.3878V31.3743C8.96009 31.9525 8.96009 32.3785 8.98995 32.5915C8.98995 32.8046 9.07955 33.048 9.13929 33.261C9.31849 33.6262 9.8561 33.9305 10.782 34.1739C11.439 34.3261 11.7676 34.6608 11.7676 35.1782C11.7676 35.7259 11.4092 36.0302 10.7222 36.0302H
</g>
<defs>
<clipPath id="clip0_582_37598">
<rect width="110" height="36" fill="white"/>
</clipPath>
</defs>
</svg>
