<svg width="32" height="32" viewBox="0 0 32 32" fill="none" xmlns="http://www.w3.org/2000/svg">
<g clip-path="url(#clip0_187_3377)">
<rect width="32" height="32" fill="#666666"/>
<path d="M22.6818 19.9901C22.4166 20.6142 22.0983 21.1847 21.7367 21.7112C21.24 22.428 20.8301 22.9254 20.5167 23.2032C20.0297 23.6567 19.5088 23.8859 18.9495 23.9005C18.5492 23.9005 18.067 23.7834 17.5028 23.5494C16.9386 23.3154 16.4178 23.2032 15.9453 23.2032C15.4486 23.2032 14.9133 23.3203 14.3443 23.5494C13.7704 23.7834 13.3123 23.9053 12.9603 23.9151C12.4251 23.9395 11.8898 23.7005 11.3594 23.1983C11.017 22.896 10.5926 22.3841 10.0863 21.6576C9.54139 20.8774 9.08809 19.9803 8.73608 18.9515C8.35996 17.8398 8.17188 16.7671 8.17188 15.7237C8.17188 14.5291 8.42744 13.5003 8.93862 12.6421C9.33885 11.9498 9.87414 11.4036 10.5396 11.0039C11.2099 10.604 11.9284 10.3992 12.7048 10.3846C13.1291 10.3846 13.6885 10.5163 14.3829 10.7795C15.0724 11.0429 15.5161 11.1745 15.7138 11.1745C15.8584 11.1745 16.3503 11.0184 17.1893 10.7064C17.9802 10.4187 18.6456 10.3017 19.1953 10.3456C20.6758 10.4675 21.7897 11.0574 22.5274 12.1204C21.2013 12.9298 20.5503 14.0659 20.56 15.5238C20.5697 16.6598 20.9795 17.6058 21.78 18.3566C22.1417 18.7028 22.5467 18.9759 23 19.166C22.8939 19.4537 22.7927 19.7267 22.6818 19.99L22.6818 19.9901ZM19.287 6.47902C19.287 7.3713 18.9639 8.20019 18.3225 8.97057C17.551 9.88723 16.6155 10.4138 15.598 10.331C15.5836 10.2237 15.5787 10.1115 15.5787 9.9945C15.5787 9.14123 15.9452 8.22457 16.601 7.47858C16.9289 7.09827 17.3437 6.78619 17.8451 6.53264C18.3467 6.28399 18.824 6.14743 19.2677 6.12305C19.2773 6.24009 19.287 6.36203 19.287 6.47902Z" fill="white"/>
<path fill-rule="evenodd" clip-rule="evenodd" d="M21.2261 9.13737e-07L10.7741 0L16.0001 5.22597L21.2261 9.13737e-07ZM10.7741 32.0001H21.226L16.0001 26.7741L10.7741 32.0001ZM6.1492e-05 10.774L5.22604 16L6.10352e-05 21.226L6.1492e-05 10.774ZM32.0001 21.2261V10.7741L26.7741 16.0001L32.0001 21.2261Z" fill="black" fill-opacity="0.5"/>
</g>
<defs>
<clipPath id="clip0_187_3377">
<rect width="32" height="32" fill="white"/>
</clipPath>
</defs>
</svg>
