<svg width="76" height="27" viewBox="0 0 104 27" fill="FFFFFF" xmlns="http://www.w3.org/2000/svg">
<path d="M0 26.3772H26.3772V14.5074H7.66855C3.43333 14.5074 0 17.9408 0 22.176V26.3772Z" fill="FFFFFF"></path>
<path d="M26.3772 0H0V11.8697H18.7086C22.9438 11.8697 26.3772 8.43639 26.3772 4.20117V0Z" fill="FFFFFF"></path>
<path d="M72.5289 22.7708C71.7931 23.8418 70.8172 24.8486 69.4515 25.5895C68.0762 26.3356 66.3041 26.8128 63.981 26.8128C60.9031 26.8128 58.367 25.7419 56.6004 23.9663C54.8337 22.1906 53.835 19.7086 53.835 16.8832C53.835 11.3783 58.1883 6.95359 63.6203 6.95359C69.7364 6.95359 73.3695 11.7377 73.3695 16.4863C73.3695 17.3022 73.3346 18.012 73.2651 18.4794H59.0387H59.0041L59.0124 18.513C59.6288 21.0152 61.5885 22.4298 64.1253 22.4298C65.6188 22.4298 66.6493 22.0941 67.4169 21.4565C68.1447 20.8518 69.1708 20.5419 69.9484 21.0581L72.5289 22.7708ZM58.94 15.0017L58.9332 15.0344H58.9666H68.3822H68.4154L68.4088 15.0019C68.1554 13.7527 67.6118 12.7369 66.822 12.0333C66.0319 11.3295 64.9972 10.9397 63.7646 10.9397C62.5326 10.9397 61.462 11.3021 60.6312 11.9921C59.8006 12.6821 59.2116 13.698 58.94 15.0017ZM90.2505 9.68612L90.298 9.73988V9.66814V9.52436C90.298 8.34365 91.2551 7.38649 92.4358 7.38649H95.1859V26.3438H90.298V24.2786V24.2043L90.2501 24.2611C88.8847 25.8779 86.9084 26.8128 84.4266 26.8128C78.9597 26.8128 75.0021 22.5335 75.0021 16.8832C75.0021 14.0397 75.9918 11.6388 77.6638 9.94879C79.3358 8.25881 81.6916 7.27826 84.4266 7.27826C86.9091 7.27826 88.8854 8.14149 90.2505 9.68612ZM48.2449 15.2731L48.1992 15.3193H48.2642H51.752V18.4108H45.0824H45.071L45.0631 18.4188L41.4757 22.0484L41.43 22.0946H41.495H49.6819C50.2282 22.0946 50.725 22.3062 51.0949 22.6519C51.4992 23.0298 51.7519 23.5676 51.7519 24.1646L51.7519 26.2347H35.5936V24.917C35.5936 24.1348 35.7263 23.3661 35.9793 22.641C36.0017 22.5767 36.0251 22.5126 36.0495 22.449C36.3884 21.5628 36.9093 20.7475 37.5889 20.0599L39.1732 18.457L39.2189 18.4108H39.1538H35.5936V15.3193H42.3356H42.347L42.355 15.3113L45.8698 11.7551L45.9155 11.7088H45.8505H37.6636C37.1173 11.7088 36.6205 11.4972 36.2506 11.1515C35.8463 10.7737 35.5936 10.2358 35.5936 9.63885L35.5936 7.5688H51.7519V8.8864C51.7519 9.66868 51.6192 10.4374 51.3662 11.1624C51.3438 11.2268 51.3204 11.2908 51.296 11.3545C50.9571 12.2406 50.4362 13.056 49.7566 13.7436L48.2449 15.2731ZM101.943 26.3438H98.6882V0.0271588H103.973V24.3142C103.973 25.4351 103.064 26.3438 101.943 26.3438ZM80.2508 16.8832C80.2508 19.9268 82.3176 22.1412 85.1842 22.1412C86.6521 22.1412 87.8861 21.6064 88.7529 20.6806C89.6196 19.7549 90.1176 18.4402 90.1176 16.8832C90.1176 15.3261 89.6196 14.0025 88.753 13.0678C87.8862 12.1329 86.6523 11.589 85.1842 11.589C82.3174 11.589 80.2508 13.8398 80.2508 16.8832Z" fill="FFFFFF" stroke="currentColor" stroke-width="0.0543176"></path>
</svg>
