<?xml version="1.0" encoding="UTF-8"?>
<!DOCTYPE svg PUBLIC "-//W3C//DTD SVG 1.1//EN" "http://www.w3.org/Graphics/SVG/1.1/DTD/svg11.dtd">
<svg xmlns="http://www.w3.org/2000/svg" version="1.1" width="652px" height="205px" viewBox="50 20 500 160"  style="shape-rendering:geometricPrecision; text-rendering:geometricPrecision; image-rendering:optimizeQuality; fill-rule:evenodd; clip-rule:evenodd" xmlns:xlink="http://www.w3.org/1999/xlink">
<g><path style="opacity:0.945" fill="#fefffe" d="M 86.5,6.5 C 94.586,9.04073 102.586,11.8741 110.5,15C 111.146,20.4478 111.812,25.9478 112.5,31.5C 115.021,32.7853 117.687,33.4519 120.5,33.5C 120.5,28.8333 120.5,24.1667 120.5,19.5C 129.468,21.1558 138.135,23.8224 146.5,27.5C 147.167,32.5 147.833,37.5 148.5,42.5C 150.751,43.6948 153.085,44.6948 155.5,45.5C 156.798,41.2846 156.798,37.1179 155.5,33C 156.263,32.0565 157.263,31.5565 158.5,31.5C 166.161,34.1649 173.828,36.8316 181.5,39.5C 182.5,66.8252 182.833,94.1585 182.5,121.5C 150.26,121.829 118.093,121.496 86,120.5C 85.1735,82.4288 85.3402,44.4288 86.5,6.5 Z"/></g>
<g><path style="opacity:0.676" fill="#fefffe" d="M 51.5,18.5 C 55.1556,19.6589 58.8223,20.8256 62.5,22C 65.1667,26 65.1667,30 62.5,34C 59.3877,35.3058 56.2211,36.4724 53,37.5C 52.228,37.3552 51.5613,37.0219 51,36.5C 50.2124,30.418 50.379,24.418 51.5,18.5 Z"/></g>
<g><path style="opacity:0.679" fill="#fefffe" d="M 15.5,30.5 C 20.2959,31.4862 24.7959,33.1528 29,35.5C 29.7415,38.562 29.5748,41.562 28.5,44.5C 24.9051,45.9838 21.2385,47.3171 17.5,48.5C 16.914,48.2907 16.414,47.9574 16,47.5C 15.5006,41.8431 15.3339,36.1764 15.5,30.5 Z"/></g>
<g><path style="opacity:0.633" fill="#fefffe" d="M 220.5,66.5 C 233.171,66.3334 245.838,66.5001 258.5,67C 260.2,71.6654 261.2,76.4987 261.5,81.5C 260.325,81.719 259.325,81.3857 258.5,80.5C 256.637,76.47 253.637,73.6367 249.5,72C 244.177,71.5006 238.844,71.334 233.5,71.5C 233.812,78.4222 233.479,85.2555 232.5,92C 238.019,92.9993 243.353,92.4993 248.5,90.5C 249.768,88.6957 250.435,86.6957 250.5,84.5C 251.5,84.5 252.5,84.5 253.5,84.5C 253.83,90.8682 253.496,97.2015 252.5,103.5C 250.84,101.007 248.84,98.8402 246.5,97C 241.833,96.3333 237.167,96.3333 232.5,97C 233.313,103.419 233.813,109.919 234,116.5C 235.635,117.726 237.135,119.059 238.5,120.5C 232.193,121.664 225.859,121.831 219.5,121C 221.827,119.004 223.327,116.504 224,113.5C 224.667,100.833 224.667,88.1667 224,75.5C 223.01,72.374 221.844,69.374 220.5,66.5 Z"/></g>
<g><path style="opacity:0.656" fill="#fefffe" d="M 287.5,66.5 C 289.225,66.8425 289.725,67.8425 289,69.5C 281.294,71.5426 276.627,76.5426 275,84.5C 272.079,95.5592 273.912,105.726 280.5,115C 283.5,116.833 286.5,118.667 289.5,120.5C 273.548,119.544 265.215,110.877 264.5,94.5C 265.124,79.1981 272.79,69.8648 287.5,66.5 Z"/></g>
<g><path style="opacity:0.638" fill="#fefffe" d="M 296.5,66.5 C 315.496,70.4697 323.663,82.1364 321,101.5C 317.605,112.526 310.272,119.193 299,121.5C 298.167,121.167 297.333,120.833 296.5,120.5C 307.364,115.471 312.698,106.804 312.5,94.5C 312.516,85.6992 309.516,78.1992 303.5,72C 301.608,71.0266 299.608,70.3599 297.5,70C 296.663,68.9887 296.33,67.8221 296.5,66.5 Z"/></g>
<g><path style="opacity:0.676" fill="#fefffe" d="M 327.5,66.5 C 337.889,66.1302 348.223,66.6302 358.5,68C 370.589,71.6812 373.755,79.1812 368,90.5C 365.533,92.8021 362.7,94.4688 359.5,95.5C 361.483,96.982 363.316,98.6487 365,100.5C 366.545,105.681 368.545,110.681 371,115.5C 372.896,117.53 375.063,119.197 377.5,120.5C 372.833,121.833 368.167,121.833 363.5,120.5C 360.314,113.405 356.981,106.405 353.5,99.5C 352.692,99.1924 352.025,98.6924 351.5,98C 347.514,97.5012 343.514,97.3345 339.5,97.5C 339.334,103.176 339.501,108.843 340,114.5C 340.536,116.869 341.703,118.869 343.5,120.5C 337.863,121.663 332.196,121.83 326.5,121C 327.667,119.833 328.833,118.667 330,117.5C 330.667,102.167 330.667,86.8333 330,71.5C 327.71,70.1719 326.876,68.5053 327.5,66.5 Z M 339.5,71.5 C 344.511,71.3341 349.511,71.5007 354.5,72C 356.081,72.7065 357.581,73.5399 359,74.5C 359.416,77.2761 360.249,79.9428 361.5,82.5C 360.985,85.7427 359.652,88.5761 357.5,91C 351.593,92.3608 345.593,92.8608 339.5,92.5C 339.5,85.5 339.5,78.5 339.5,71.5 Z"/></g>
<g><path style="opacity:0.643" fill="#fefffe" d="M 380.5,66.5 C 396.17,66.3334 411.837,66.5001 427.5,67C 428.944,72.3903 429.944,77.8903 430.5,83.5C 429.5,83.5 428.5,83.5 427.5,83.5C 424.839,74.3586 418.673,70.0253 409,70.5C 408.333,85.5 408.333,100.5 409,115.5C 409.972,117.305 411.139,118.972 412.5,120.5C 406.833,121.833 401.167,121.833 395.5,120.5C 396.48,119.019 397.647,117.685 399,116.5C 399.5,101.504 399.667,86.5037 399.5,71.5C 395.363,71.1463 391.363,71.6463 387.5,73C 384.538,76.4401 381.705,79.9401 379,83.5C 378.5,83.1667 378,82.8333 377.5,82.5C 378.792,77.1865 379.792,71.8532 380.5,66.5 Z"/></g>
<g><path style="opacity:0.669" fill="#fefffe" d="M 435.5,66.5 C 441.352,66.0506 447.019,66.5506 452.5,68C 451.333,69.1667 450.167,70.3333 449,71.5C 448.5,86.8297 448.333,102.163 448.5,117.5C 461.146,120.135 470.313,115.801 476,104.5C 476.87,105.108 477.37,105.941 477.5,107C 476.547,111.794 475.88,116.627 475.5,121.5C 462.15,121.833 448.817,121.499 435.5,120.5C 436.861,118.972 438.028,117.305 439,115.5C 439.667,101.5 439.667,87.5 439,73.5C 437.121,71.4732 435.954,69.1398 435.5,66.5 Z"/></g>
<g><path style="opacity:0.642" fill="#fefffe" d="M 504.5,66.5 C 505.496,66.4142 506.329,66.7476 507,67.5C 513.608,81.7158 519.941,96.0491 526,110.5C 527.527,114.249 529.694,117.582 532.5,120.5C 526.833,121.833 521.167,121.833 515.5,120.5C 516.711,119.126 517.711,117.626 518.5,116C 517.246,111.992 515.579,108.158 513.5,104.5C 506.532,103.503 499.532,103.17 492.5,103.5C 491.858,107.594 490.524,111.428 488.5,115C 489.271,117.267 490.604,119.1 492.5,120.5C 487.833,121.833 483.167,121.833 478.5,120.5C 480.524,118.31 482.357,115.977 484,113.5C 490.865,97.777 497.699,82.1103 504.5,66.5 Z M 502.5,80.5 C 505.669,86.5267 508.669,92.6933 511.5,99C 506.136,99.8295 500.802,99.6628 495.5,98.5C 497.846,92.4788 500.18,86.4788 502.5,80.5 Z"/></g>
<g><path style="opacity:0.684" fill="#fefffe" d="M 537.5,66.5 C 542.833,66.5 548.167,66.5 553.5,66.5C 552.156,69.374 550.99,72.374 550,75.5C 549.333,81.1667 549.333,86.8333 550,92.5C 556.816,86.4067 563.483,80.0734 570,73.5C 569.86,71.1489 569.36,68.8155 568.5,66.5C 573.833,66.5 579.167,66.5 584.5,66.5C 584.67,67.8221 584.337,68.9887 583.5,70C 574.485,74.843 566.819,81.343 560.5,89.5C 568.09,100.59 576.923,110.59 587,119.5C 587.563,120.725 587.23,121.725 586,122.5C 580.22,121.853 574.387,121.186 568.5,120.5C 569.833,119.38 570.333,118.047 570,116.5C 564.573,109.317 558.906,102.317 553,95.5C 549.991,98.2693 548.824,101.769 549.5,106C 548.902,111.451 550.236,116.284 553.5,120.5C 548.208,121.495 542.875,121.828 537.5,121.5C 538.139,119.24 539.306,117.24 541,115.5C 541.667,101.5 541.667,87.5 541,73.5C 538.774,71.7153 537.608,69.3819 537.5,66.5 Z"/></g>
<g><path style="opacity:0.599" fill="#fefffe" d="M 593.5,66.5 C 606.517,66.1675 619.517,66.5009 632.5,67.5C 634.325,72.0882 634.658,76.7549 633.5,81.5C 631.332,77.1668 627.999,74.0002 623.5,72C 617.843,71.5006 612.176,71.3339 606.5,71.5C 606.5,78.1667 606.5,84.8333 606.5,91.5C 611.179,91.6658 615.845,91.4992 620.5,91C 622.154,88.3792 623.987,85.8792 626,83.5C 627.455,89.6527 627.955,95.9861 627.5,102.5C 626.448,102.649 625.448,102.483 624.5,102C 623.5,100.333 622.5,98.6667 621.5,97C 616.58,95.7497 611.58,95.2497 606.5,95.5C 606.813,102.755 606.48,109.921 605.5,117C 613.857,118.375 621.857,117.375 629.5,114C 631.667,111.167 633.833,108.333 636,105.5C 636.944,106.263 637.444,107.263 637.5,108.5C 636.603,112.486 635.769,116.486 635,120.5C 621.246,121.49 607.412,121.823 593.5,121.5C 595.631,118.79 596.964,115.624 597.5,112C 597.5,100 597.5,88 597.5,76C 596.344,72.7041 595.011,69.5374 593.5,66.5 Z"/></g>
<g><path style="opacity:0.704" fill="#fefffe" d="M 87.5,131.5 C 118.835,131.333 150.168,131.5 181.5,132C 182.833,133.667 182.833,135.333 181.5,137C 149.828,137.833 118.161,137.667 86.5,136.5C 85.0961,134.453 85.4294,132.787 87.5,131.5 Z"/></g>
<g><path style="opacity:0.576" fill="#fefffe" d="M 88.5,139.5 C 118.835,139.333 149.168,139.5 179.5,140C 182.473,141.224 183.14,143.224 181.5,146C 179.899,146.273 178.399,146.773 177,147.5C 149,147.5 121,147.5 93,147.5C 90.8526,146.887 88.686,146.221 86.5,145.5C 85.4181,142.982 86.0848,140.982 88.5,139.5 Z"/></g>
<g><path style="opacity:0.432" fill="#fefffe" d="M 235.5,144.5 C 236.978,144.238 238.311,144.571 239.5,145.5C 242.125,151.746 244.459,158.08 246.5,164.5C 242.5,165.167 240.833,163.5 241.5,159.5C 238.833,159.5 236.167,159.5 233.5,159.5C 233.817,163.172 232.151,164.838 228.5,164.5C 230.826,157.844 233.16,151.177 235.5,144.5 Z M 236.5,152.5 C 238.048,152.821 238.715,153.821 238.5,155.5C 237.448,155.649 236.448,155.483 235.5,155C 236.252,154.329 236.586,153.496 236.5,152.5 Z"/></g>
<g><path style="opacity:0.43" fill="#fefffe" d="M 252.5,144.5 C 255.249,144.274 257.916,144.607 260.5,145.5C 261.95,146.85 262.617,148.516 262.5,150.5C 259.739,149.08 256.739,148.413 253.5,148.5C 253.5,149.5 253.5,150.5 253.5,151.5C 262.886,152.116 265.219,156.283 260.5,164C 256.283,165.92 252.616,165.42 249.5,162.5C 248.289,161.28 248.289,160.113 249.5,159C 251.757,158.888 253.924,159.388 256,160.5C 257.662,160.612 258.829,159.946 259.5,158.5C 256.37,156.909 253.203,155.243 250,153.5C 248.927,149.9 249.76,146.9 252.5,144.5 Z"/></g>
<g><path style="opacity:0.427" fill="#fefffe" d="M 270.5,144.5 C 273.32,144.248 275.986,144.748 278.5,146C 280.037,147.11 280.703,148.61 280.5,150.5C 277.91,150.604 275.577,149.937 273.5,148.5C 272,148.453 271,149.119 270.5,150.5C 274.249,151.411 277.582,153.078 280.5,155.5C 281.869,158.201 281.536,160.701 279.5,163C 275.35,165.144 271.35,164.977 267.5,162.5C 266.571,161.311 266.238,159.978 266.5,158.5C 269.028,159.011 271.528,159.678 274,160.5C 275.662,160.612 276.829,159.946 277.5,158.5C 274.156,157.072 270.823,155.405 267.5,153.5C 265.953,149.603 266.953,146.603 270.5,144.5 Z"/></g>
<g><path style="opacity:0.418" fill="#fefffe" d="M 285.5,144.5 C 289.833,144.5 294.167,144.5 298.5,144.5C 298.5,145.833 298.5,147.167 298.5,148.5C 295.5,148.5 292.5,148.5 289.5,148.5C 289.343,149.873 289.51,151.207 290,152.5C 293.218,150.897 296.051,151.397 298.5,154C 296.051,156.603 293.218,157.103 290,155.5C 289.506,157.134 289.34,158.801 289.5,160.5C 292.833,160.5 296.167,160.5 299.5,160.5C 299.5,161.833 299.5,163.167 299.5,164.5C 294.833,164.5 290.167,164.5 285.5,164.5C 285.5,157.833 285.5,151.167 285.5,144.5 Z"/></g>
<g><path style="opacity:0.434" fill="#fefffe" d="M 302.5,144.5 C 307.5,144.5 312.5,144.5 317.5,144.5C 317.5,145.833 317.5,147.167 317.5,148.5C 315.5,148.5 313.5,148.5 311.5,148.5C 311.5,153.833 311.5,159.167 311.5,164.5C 310.167,164.5 308.833,164.5 307.5,164.5C 307.5,159.167 307.5,153.833 307.5,148.5C 305.5,148.5 303.5,148.5 301.5,148.5C 301.433,147.041 301.766,145.708 302.5,144.5 Z"/></g>
<g><path style="opacity:0.44" fill="#fefffe" d="M 331.5,144.5 C 332.833,144.5 334.167,144.5 335.5,144.5C 336.986,148.812 338.486,153.145 340,157.5C 342.116,153.661 343.95,149.661 345.5,145.5C 347.006,144.253 348.506,144.253 350,145.5C 350.667,151.5 350.667,157.5 350,163.5C 348.989,164.337 347.822,164.67 346.5,164.5C 347.355,151.605 345.855,151.272 342,163.5C 341.439,164.022 340.772,164.355 340,164.5C 337.97,161.787 336.304,158.787 335,155.5C 334.502,158.482 334.335,161.482 334.5,164.5C 333.178,164.67 332.011,164.337 331,163.5C 330.21,157.085 330.376,150.752 331.5,144.5 Z"/></g>
<g><path style="opacity:0.433" fill="#fefffe" d="M 360.5,144.5 C 363.48,144.241 365.313,145.574 366,148.5C 367.556,153.278 369.39,157.945 371.5,162.5C 367.88,165.495 366.213,164.495 366.5,159.5C 363.833,159.5 361.167,159.5 358.5,159.5C 358.817,163.172 357.151,164.838 353.5,164.5C 355.437,157.69 357.77,151.023 360.5,144.5 Z M 361.5,152.5 C 363.048,152.821 363.715,153.821 363.5,155.5C 362.448,155.649 361.448,155.483 360.5,155C 361.252,154.329 361.586,153.496 361.5,152.5 Z"/></g>
<g><path style="opacity:0.456" fill="#fefffe" d="M 375.5,144.5 C 376.822,144.33 377.989,144.663 379,145.5C 381.333,148.833 383.667,152.167 386,155.5C 386.333,152.167 386.667,148.833 387,145.5C 388.011,144.663 389.178,144.33 390.5,144.5C 390.5,151.167 390.5,157.833 390.5,164.5C 388.856,164.714 387.356,164.38 386,163.5C 383.916,159.664 381.583,155.997 379,152.5C 378.501,156.486 378.334,160.486 378.5,164.5C 376.897,164.688 375.563,164.188 374.5,163C 375.476,156.924 375.81,150.758 375.5,144.5 Z"/></g>
<g><path style="opacity:0.448" fill="#fefffe" d="M 401.5,144.5 C 402.822,144.33 403.989,144.663 405,145.5C 407.768,151.687 409.935,158.02 411.5,164.5C 408.459,164.594 406.793,163.094 406.5,160C 402.231,158.732 399.231,160.066 397.5,164C 396.552,164.483 395.552,164.649 394.5,164.5C 395.703,157.429 398.037,150.762 401.5,144.5 Z M 402.5,150.5 C 403.234,151.878 403.901,153.378 404.5,155C 403.365,155.749 402.365,155.583 401.5,154.5C 402.246,153.264 402.579,151.93 402.5,150.5 Z"/></g>
<g><path style="opacity:0.437" fill="#fefffe" d="M 420.5,144.5 C 425.022,143.62 428.355,145.12 430.5,149C 428.866,152.29 427.199,152.29 425.5,149C 419.716,148.74 417.55,151.573 419,157.5C 421.451,160.987 424.284,161.32 427.5,158.5C 426.311,157.571 424.978,157.238 423.5,157.5C 423.5,156.167 423.5,154.833 423.5,153.5C 431.565,151.413 434.065,154.08 431,161.5C 426,165.5 421,165.5 416,161.5C 412.906,154.429 414.406,148.762 420.5,144.5 Z"/></g>
<g><path style="opacity:0.408" fill="#fefffe" d="M 436.5,144.5 C 440.846,144.334 445.179,144.501 449.5,145C 450.337,146.011 450.67,147.178 450.5,148.5C 447.167,148.5 443.833,148.5 440.5,148.5C 440.5,149.5 440.5,150.5 440.5,151.5C 442.857,151.337 445.19,151.503 447.5,152C 448.833,153.333 448.833,154.667 447.5,156C 445.19,156.497 442.857,156.663 440.5,156.5C 440.5,157.833 440.5,159.167 440.5,160.5C 443.833,160.5 447.167,160.5 450.5,160.5C 450.5,161.833 450.5,163.167 450.5,164.5C 445.833,164.5 441.167,164.5 436.5,164.5C 436.5,157.833 436.5,151.167 436.5,144.5 Z"/></g>
<g><path style="opacity:0.451" fill="#fefffe" d="M 454.5,144.5 C 456.288,144.215 457.955,144.548 459.5,145.5C 460.897,149.294 462.564,152.961 464.5,156.5C 466.554,153.059 468.054,149.393 469,145.5C 470.667,144.167 472.333,144.167 474,145.5C 474.667,151.5 474.667,157.5 474,163.5C 472.989,164.337 471.822,164.67 470.5,164.5C 471.195,152.841 470.028,152.174 467,162.5C 466.261,163.574 465.261,164.241 464,164.5C 461.448,161.673 459.781,158.34 459,154.5C 458.502,157.817 458.335,161.15 458.5,164.5C 457.167,164.5 455.833,164.5 454.5,164.5C 454.5,157.833 454.5,151.167 454.5,144.5 Z"/></g>
<g><path style="opacity:0.41" fill="#fefffe" d="M 479.5,144.5 C 483.846,144.334 488.179,144.501 492.5,145C 493.337,146.011 493.67,147.178 493.5,148.5C 490.167,148.5 486.833,148.5 483.5,148.5C 483.5,149.5 483.5,150.5 483.5,151.5C 485.857,151.337 488.19,151.503 490.5,152C 493.167,153.333 493.167,154.667 490.5,156C 488.231,156.758 486.064,156.591 484,155.5C 483.506,157.134 483.34,158.801 483.5,160.5C 486.833,160.5 490.167,160.5 493.5,160.5C 493.67,161.822 493.337,162.989 492.5,164C 488.179,164.499 483.846,164.666 479.5,164.5C 479.5,157.833 479.5,151.167 479.5,144.5 Z"/></g>
<g><path style="opacity:0.425" fill="#fefffe" d="M 498.5,144.5 C 500.39,144.297 501.89,144.963 503,146.5C 505,149.833 507,153.167 509,156.5C 509.499,152.514 509.666,148.514 509.5,144.5C 510.822,144.33 511.989,144.663 513,145.5C 513.667,151.5 513.667,157.5 513,163.5C 511.951,164.517 510.784,164.684 509.5,164C 506.627,160.423 504.127,156.589 502,152.5C 501.667,156.167 501.333,159.833 501,163.5C 499.989,164.337 498.822,164.67 497.5,164.5C 497.207,157.745 497.54,151.078 498.5,144.5 Z"/></g>
<g><path style="opacity:0.391" fill="#fefffe" d="M 517.5,144.5 C 522.544,144.173 527.544,144.506 532.5,145.5C 532.709,146.086 533.043,146.586 533.5,147C 531.377,148.194 529.043,148.86 526.5,149C 527.635,153.748 527.802,158.581 527,163.5C 525.951,164.517 524.784,164.684 523.5,164C 522.529,158.928 522.195,153.762 522.5,148.5C 520.5,148.5 518.5,148.5 516.5,148.5C 516.433,147.041 516.766,145.708 517.5,144.5 Z"/></g>
<g><path style="opacity:0.603" fill="#fefffe" d="M 88.5,148.5 C 119.168,148.333 149.835,148.5 180.5,149C 182.602,150.733 182.935,152.733 181.5,155C 149.828,155.833 118.161,155.667 86.5,154.5C 84.9811,151.723 85.6477,149.723 88.5,148.5 Z"/></g>
<g><path style="opacity:0.514" fill="#fefffe" d="M 18.5,157.5 C 21.5184,157.335 24.5184,157.502 27.5,158C 30.1667,160 30.1667,162 27.5,164C 24.1667,164.667 20.8333,164.667 17.5,164C 16.1443,161.586 16.4776,159.419 18.5,157.5 Z"/></g>
<g><path style="opacity:0.604" fill="#fefffe" d="M 88.5,157.5 C 119.168,157.333 149.835,157.5 180.5,158C 182.602,159.733 182.935,161.733 181.5,164C 150.167,164.667 118.833,164.667 87.5,164C 85.1155,161.55 85.4488,159.383 88.5,157.5 Z"/></g>
<g><path style="opacity:0.575" fill="#fefffe" d="M 18.5,166.5 C 21.5184,166.335 24.5184,166.502 27.5,167C 29.5268,168.396 29.8602,170.062 28.5,172C 24.5138,172.499 20.5138,172.666 16.5,172.5C 16.2525,170.142 16.9192,168.142 18.5,166.5 Z"/></g>
<g><path style="opacity:0.69" fill="#fefffe" d="M 88.5,166.5 C 107.503,166.333 126.503,166.5 145.5,167C 147.527,168.396 147.86,170.062 146.5,172C 126.5,172.667 106.5,172.667 86.5,172C 85.0804,169.426 85.747,167.593 88.5,166.5 Z"/></g>
<g><path style="opacity:0.582" fill="#fefffe" d="M 157.5,166.5 C 160.579,166.26 163.579,166.593 166.5,167.5C 167.452,169.045 167.785,170.712 167.5,172.5C 163.486,172.666 159.486,172.499 155.5,172C 154.554,169.702 155.221,167.868 157.5,166.5 Z"/></g>
<g><path style="opacity:0.57" fill="#fefffe" d="M 53.5,175.5 C 56.8499,175.335 60.1832,175.502 63.5,176C 64.5536,177.388 64.7203,178.888 64,180.5C 60.2564,181.626 56.423,181.793 52.5,181C 51.2427,178.924 51.576,177.09 53.5,175.5 Z"/></g>
<g><path style="opacity:0.672" fill="#fefffe" d="M 87.5,175.5 C 95.1739,175.334 102.841,175.5 110.5,176C 111.406,177.699 111.739,179.533 111.5,181.5C 103.913,181.186 96.4129,181.519 89,182.5C 85.056,180.845 84.556,178.512 87.5,175.5 Z"/></g>
<g><path style="opacity:0.666" fill="#fefffe" d="M 122.5,175.5 C 130.174,175.334 137.841,175.5 145.5,176C 147.527,177.396 147.86,179.062 146.5,181C 138.167,181.667 129.833,181.667 121.5,181C 120.243,178.924 120.576,177.09 122.5,175.5 Z"/></g>
<g><path style="opacity:0.514" fill="#fefffe" d="M 53.5,184.5 C 56.8499,184.335 60.1832,184.502 63.5,185C 65.3336,189.713 63.6669,191.879 58.5,191.5C 52.2027,191.914 50.5361,189.581 53.5,184.5 Z"/></g>
<g><path style="opacity:0.578" fill="#fefffe" d="M 87.5,184.5 C 95.5,184.5 103.5,184.5 111.5,184.5C 111.756,186.792 111.423,188.959 110.5,191C 106.833,191.167 103.167,191.333 99.5,191.5C 95.0534,191.604 90.7201,191.104 86.5,190C 85.2427,187.924 85.576,186.09 87.5,184.5 Z"/></g>
<g><path style="opacity:0.515" fill="#fefffe" d="M 122.5,184.5 C 125.85,184.335 129.183,184.502 132.5,185C 133.767,186.796 133.767,188.629 132.5,190.5C 129.216,191.657 125.882,191.824 122.5,191C 119.939,188.844 119.939,186.677 122.5,184.5 Z"/></g>
<g><path style="opacity:0.529" fill="#fefffe" d="M 87.5,193.5 C 92.544,193.173 97.544,193.506 102.5,194.5C 103.833,196.167 103.833,197.833 102.5,199.5C 97.533,200.662 92.533,200.829 87.5,200C 84.9387,197.844 84.9387,195.677 87.5,193.5 Z"/></g>
</svg>
