<svg xmlns="http://www.w3.org/2000/svg" viewBox="0 0 135 28" width="135" height="28"><path d="m18.05 9.336c.344 0 .622.278.622.622v8.089c0 .344-.278.623-.622.623h-8.089c-.344 0-.623-.279-.623-.623v-8.089c0-.344.279-.622.623-.622zm-9.338-9.336c.343 0 .622.279.622.622v8.09c0 .343-.279.622-.622.622h-8.09c-.343 0-.622-.279-.622-.622v-8.09c0-.343.279-.622.622-.622h8.09zm18.669 0c.343 0 .622.279.622.622v8.09c0 .343-.279.622-.622.622h-8.09c-.344 0-.622-.279-.622-.622v-8.09c0-.343.278-.622.622-.622h8.09zm-18.669 18.666c.343 0 .622.279.622.622v8.09c0 .343-.279.622-.622.622h-8.09c-.343 0-.622-.279-.622-.622v-8.09c0-.343.279-.622.622-.622zm18.669 0c.343 0 .622.279.622.622v8.09c0 .343-.279.622-.622.622h-8.09c-.344 0-.622-.279-.622-.622v-8.09c0-.343.278-.622.622-.622zm25.781-17.304h2.974l5.318 20.117 5.354-20.117h3.323l-6.892 25.12h-3.289l-5.353-19.557-5.318 19.557h-3.289l-6.927-25.12h3.463l5.353 20.117zm23.264 25.435c-3.324 0-6.017-1.959-6.017-5.248 0-3.639 2.833-5.143 6.927-5.983l4.443-.909v-.77c0-2.099-1.154-3.289-3.603-3.289-2.309 0-3.674 1.085-4.234 3.114l-2.973-.77c.874-2.974 3.568-5.108 7.312-5.108 4.093 0 6.612 1.994 6.612 5.913v8.922c0 1.189.735 1.574 1.96 1.294v2.519c-2.8.35-4.409-.314-4.794-2.064-1.12 1.435-3.148 2.379-5.633 2.379zm5.353-6.542v-3.149l-3.568.77c-2.799.559-4.689 1.329-4.689 3.533 0 1.785 1.295 2.834 3.289 2.834 2.694 0 4.968-1.644 4.968-3.988zm11.629-18.893v25.12h-3.149v-25.12zm8.405 0v25.12h-3.149v-25.12zm12.569 25.505c-5.073 0-8.572-3.883-8.572-9.516 0-5.458 3.464-9.517 8.432-9.517 5.108 0 7.802 3.884 7.802 8.957v1.05h-13.225c.175 3.848 2.379 6.297 5.563 6.297 2.449 0 4.198-1.329 4.758-3.498l2.764.979c-1.119 3.254-3.884 5.248-7.522 5.248zm-.175-16.339c-2.659 0-4.653 1.785-5.213 4.898h9.866c-.07-2.589-1.469-4.898-4.653-4.898zm12.246 11.581v-11.231h-2.833v-2.694h2.833v-5.353h3.114v5.353h4.164v2.694h-4.164v10.741c0 1.924.945 2.274 2.555 2.274.734 0 1.259-.035 1.994-.21v2.694c-.805.175-1.714.28-2.764.28-3.114 0-4.899-1.049-4.899-4.548z" fill="currentColor"></path></svg>
