<svg xmlns="http://www.w3.org/2000/svg" viewBox="0 0 129 36" width="129" height="36"><path d="m43.985 28.089v-24.093h9.592c4.746 0 7.647 2.472 7.647 6.493 0 2.67-1.187 4.581-3.461 5.537 2.538.824 3.823 2.736 3.823 5.537 0 4.12-2.867 6.526-7.844 6.526zm9.229-20.369h-5.01v6.559h5.109c2.307 0 3.593-1.219 3.593-3.362 0-2.076-1.319-3.197-3.692-3.197zm.363 10.119h-5.373v6.526h5.373c2.373 0 3.691-1.154 3.691-3.329 0-2.043-1.351-3.197-3.691-3.197zm8.347 17.798v-3.362h2.406c1.582 0 2.571-.362 3.263-2.274l.461-1.219-6.559-16.975h4.252l4.186 11.866 4.416-11.866h4.153l-7.976 19.908c-1.219 3.032-2.933 4.285-5.603 4.285-1.121 0-2.11-.132-2.999-.363zm27.882-23.896v3.725h-1.484c-2.9 0-4.713 1.549-4.713 4.713v7.91h-4.021v-16.249h3.79l.231 2.373c.692-1.615 2.241-2.702 4.417-2.702.56 0 1.12.065 1.78.23zm8.26 16.777c-4.845 0-8.24-3.527-8.24-8.57 0-5.108 3.329-8.635 8.108-8.635 4.878 0 7.976 3.263 7.976 8.339v1.219l-12.261.033c.297 2.868 1.813 4.318 4.483 4.318 2.208 0 3.658-.857 4.12-2.406h3.724c-.692 3.56-3.658 5.702-7.91 5.702zm-.099-13.909c-2.373 0-3.823 1.285-4.219 3.724h8.174c0-2.241-1.549-3.724-3.955-3.724zm14.647 13.909c-3.461 0-5.57-2.011-5.57-5.076 0-2.999 2.175-4.878 6.032-5.175l4.878-.362v-.363c0-2.208-1.319-3.098-3.362-3.098-2.373 0-3.692.989-3.692 2.703h-3.428c0-3.527 2.901-5.834 7.318-5.834 4.383 0 7.086 2.373 7.086 6.888v9.888h-3.527l-.296-2.406c-.692 1.681-2.901 2.835-5.439 2.835zm1.319-3.032c2.472 0 4.054-1.484 4.054-3.988v-.857l-3.395.263c-2.505.231-3.461 1.055-3.461 2.373 0 1.484.989 2.209 2.802 2.209zm14.749 2.603h-3.988v-24.522h3.988zm-116.348-10.836c1.837-.224 4.255.141 5.722.881 7.301 3.682 12.896 9.647 16.077 14.816.364.593.529 1.1.529 1.499 0 .405-.173.705-.481.843-.3.133-.695.098-1.119-.089-.427-.188-.897-.536-1.361-1.057-1.17-1.316-2.577-2.768-4.271-4.351-2.927-2.646-7.307-5.533-10.152-6.596-3.289-1.23-5.189-.796-6.224.359l-.049.055c-.598.7-1.196 1.933-1.483 4.045l-.027.207c-.078.629-.127 1.32-.142 2.076-.019.904-.519 1.751-1.359 2.121l-.001.001c-.077.032-.155.064-.232.096l-.233.094c-1.667.667-3.421-.563-3.387-2.351.018-.941.079-1.827.181-2.657.354-2.87 1.226-5.251 2.724-7.001 1.597-1.866 3.387-2.759 5.288-2.991zm-10.88-11.4c5.424-2.536 13.024-4.482 21.015-3.663 2.72.279 4.4 1.254 5.857 2.486 1.461 1.235 2.463 2.96 2.767 5.394.286 2.282-.299 4.749-1.587 7.34-.373.75-.811 1.522-1.315 2.319-.958 1.511-3.102 1.579-4.127.108-.096-.137-.19-.274-.283-.413l-.001-.001c-.498-.769-.447-1.751.036-2.515l.148-.239c.34-.553.632-1.077.879-1.574l.091-.188c.896-1.86 1.095-3.191 1.003-4.101l-.01-.09c-.196-1.559-1.531-2.994-5.011-3.78-2.965-.67-8.217-.657-12.123-.048-2.288.394-4.264.837-5.967 1.295-.675.182-1.26.215-1.72.138-.457-.076-.807-.263-.984-.538-.182-.284-.16-.63.063-.968.22-.333.638-.667 1.269-.962z" fill="currentColor"></path></svg>
