<svg xmlns:xodm="http://www.corel.com/coreldraw/odm/2003" xmlns="http://www.w3.org/2000/svg" xmlns:xlink="http://www.w3.org/1999/xlink" version="1.1" id="Layer_1" x="0px" y="0px" viewBox="0 0 2500 486" style="enable-background:new 0 0 2500 486;" xml:space="preserve">
<style type="text/css">
	.st0{fill:#FFFFFF;}
</style>
<g id="Layer_x0020_1">
	<g id="_2167479589376">
		<path class="st0" d="M635.8,384.2l84.6-224.3h23.3l84.6,224.3h-22.2L785,327.1H677.1l-21.2,57.1h-21.2H635.8z M683.5,312.3h97.3    l-48.7-131.2l-47.6,131.2H683.5z"/>
		<path class="st0" d="M828.4,387.4h-22.2c-2.1,0-3.2-1.1-3.2-2.1l-20.1-54H680.3l-20.1,54c-1.1,2.1-2.1,2.1-3.2,2.1h-21.2    c-1.1,0-2.1-1.1-3.2-2.1s-1.1-2.1-1.1-3.2l84.6-224.3c1.1-2.1,2.1-2.1,3.2-2.1h23.3c2.1,0,3.2,1.1,3.2,2.1l84.6,224.3    c1.1,1.1,0,2.1-1.1,3.2s-1.1,2.1-2.1,2.1H828.4z M809.4,380H822l-82.5-215.8h-18L641.1,380h12.7l20.1-54c1.1-2.1,2.1-2.1,3.2-2.1    H785c2.1,0,3.2,1.1,3.2,2.1l19,54H809.4z M780.8,316.5h-97.3c-1.1,0-2.1-1.1-3.2-2.1s-1.1-2.1-1.1-3.2l47.6-131.2    c1.1-2.1,2.1-2.1,3.2-2.1c2.1,0,3.2,1.1,3.2,2.1l48.7,131.2c1.1,1.1,0,2.1-1.1,3.2c1.1,1.1,0,2.1-2.1,2.1H780.8z M689.8,309.1    h85.7l-43.4-116.4l-43.4,116.4H689.8z"/>
		<path class="st0" d="M1016.7,373.7c26.4,0,45.5-10.6,45.5-34.9v-16.9h19v20.1c0,28.6-23.3,45.5-64.5,45.5    c-44.4,0-67.7-16.9-67.7-45.5v-83.6c0-28.6,23.3-45.5,67.7-45.5c42.3,0,64.5,16.9,64.5,45.5v23.3h-19v-20.1    c0-24.3-16.9-34.9-45.5-34.9c-32.8,0-47.6,10.6-47.6,34.9v76.2C970.2,362,987.1,373.7,1016.7,373.7z"/>
		<path class="st0" d="M1016.7,391.6c-46.6,0-71.9-18-71.9-49.7v-83.6c0-32.8,25.4-49.7,71.9-49.7c43.4,0,68.8,18,68.8,49.7v23.3    c0,2.1-2.1,3.2-3.2,3.2h-19c-2.1,0-3.2-2.1-3.2-3.2v-20.1c0-21.2-13.8-31.7-42.3-31.7c-30.7,0-43.4,9.5-43.4,31.7v76.2    c0,21.2,13.8,31.7,43.4,31.7c15.9,0,42.3-4.2,42.3-31.7v-16.9c0-2.1,2.1-3.2,3.2-3.2h19c2.1,0,3.2,2.1,3.2,3.2v20.1    c1.1,31.7-24.3,49.7-68.8,49.7V391.6z M1016.7,217.1c-28.6,0-63.5,7.4-63.5,42.3V343c0,34.9,34.9,42.3,63.5,42.3    c39.1,0,61.4-14.8,61.4-42.3v-16.9h-11.6v12.7c0,24.3-18,39.1-48.7,39.1c-43.4,0-51.8-21.2-51.8-39.1v-76.2    c0-26.4,16.9-39.1,51.8-39.1c41.3,0,48.7,21.2,48.7,39.1v15.9h11.6v-19C1078.1,231.9,1055.9,217.1,1016.7,217.1z"/>
		<path class="st0" d="M1132,384.2V159.9h19v67.7c15.9-7.4,36-13.8,58.2-13.8c32.8,0,47.6,15.9,47.6,42.3v129.1h-20.1v-127    c0-22.2-12.7-30.7-31.7-30.7c-18,0-38.1,7.4-52.9,14.8v141.8H1132z"/>
		<path class="st0" d="M1256.9,387.4h-19c-2.1,0-3.2-2.1-3.2-3.2V258.3c0-18-8.5-27.5-27.5-27.5c-18,0-39.1,8.5-49.7,12.7v139.7    c0,2.1-2.1,3.2-3.2,3.2h-20.1c-2.1,0-3.2-2.1-3.2-3.2V158.9c0-2.1,2.1-3.2,3.2-3.2h19c2.1,0,3.2,2.1,3.2,3.2v61.4    c13.8-6.3,32.8-12.7,52.9-12.7c32.8,0,51.8,16.9,51.8,45.5v129.1c1.1,2.1-1.1,3.2-3.2,3.2L1256.9,387.4z M1241,380h12.7V254.1    c0-12.7-3.2-21.2-10.6-27.5c-7.4-7.4-18-10.6-32.8-10.6c-21.2,0-42.3,7.4-56.1,13.8c-1.1,1.1-2.1,0-3.2,0    c-1.1-1.1-2.1-2.1-2.1-3.2v-63.5h-12.7V379h12.7V241.4c0-2.1,1.1-2.1,2.1-3.2c9.5-4.2,33.9-15.9,55-15.9c23.3,0,36,12.7,36,34.9    V380H1241z"/>
		<path class="st0" d="M1373.3,373.7c29.6,0,47.6-11.6,47.6-38.1v-7.4h19v10.6c0,30.7-25.4,48.7-68.8,48.7    c-41.3,0-64.5-18-64.5-48.7v-77.2c0-30.7,23.3-48.7,64.5-48.7c43.4,0,68.8,18,68.8,48.7V307h-113.2v27.5    c0,27.5,13.8,38.1,45.5,38.1L1373.3,373.7z M1327.8,294.3h94.2v-28.6c0-27.5-19-38.1-47.6-38.1c-30.7,0-45.5,11.6-45.5,38.1v28.6    H1327.8z"/>
		<path class="st0" d="M1373.3,391.6c-21.2,0-38.1-4.2-49.7-12.7c-12.7-8.5-18-23.3-18-39.1v-77.2c0-16.9,6.3-29.6,18-39.1    c12.7-8.5,28.6-12.7,49.7-12.7c44.4,0,71.9,19,71.9,52.9v45.5c0,2.1-2.1,3.2-3.2,3.2h-109v24.3c0,24.3,12.7,33.9,41.3,33.9    c29.6,0,44.4-11.6,44.4-33.9v-7.4c0-2.1,2.1-3.2,3.2-3.2h19c2.1,0,3.2,2.1,3.2,3.2v10.6c1.1,32.8-26.4,52.9-70.9,52.9V391.6z     M1373.3,217.1c-19,0-34.9,4.2-45.5,12.7c-10.6,7.4-15.9,18-15.9,32.8v77.2c0,13.8,5.3,25.4,15.9,32.8    c10.6,7.4,26.4,12.7,45.5,12.7c41.3,0,63.5-16.9,63.5-44.4v-7.4H1424v3.2c0,27.5-18,42.3-52.9,42.3c-32.8,0-48.7-12.7-48.7-42.3    v-27.5c0-2.1,2.1-3.2,3.2-3.2h109v-42.3c1.1-28.6-23.3-44.4-63.5-44.4L1373.3,217.1z M1420.9,298.5h-93.1c-2.1,0-3.2-2.1-3.2-3.2    v-28.6c0-28.6,15.9-42.3,48.7-42.3c32.8,0,52.9,14.8,52.9,42.3v28.6c-1.1,2.1-2.1,3.2-4.2,3.2H1420.9z M1332,291.1h85.7v-25.4    c0-23.3-14.8-33.9-44.4-33.9c-28.6,0-41.3,9.5-41.3,33.9V291.1z"/>
		<path class="st0" d="M1508.7,226.6c12.7-6.3,31.7-13.8,50.8-13.8c20.1,0,33.9,6.3,42.3,16.9c18-9.5,38.1-16.9,59.2-16.9    c31.7,0,48.7,18,48.7,44.4v127h-19V260.5c0-21.2-9.5-32.8-32.8-32.8c-16.9,0-33.9,6.3-49.7,15.9c1.1,4.2,2.1,9.5,2.1,14.8v127h-19    V261.5c0-21.2-9.5-32.8-32.8-32.8c-19,0-34.9,6.3-47.6,13.8v143.9h-19V216h14.8l2.1,12.7V226.6z"/>
		<path class="st0" d="M1710.7,387.4h-19c-2.1,0-3.2-2.1-3.2-3.2V260.5c0-20.1-9.5-29.6-28.6-29.6c-13.8,0-28.6,4.2-45.5,13.8    c1.1,4.2,2.1,8.5,2.1,12.7v127c0,2.1-2.1,3.2-3.2,3.2h-19c-2.1,0-3.2-2.1-3.2-3.2V260.5c0-20.1-9.5-29.6-28.6-29.6    s-33.9,6.3-43.4,12.7v141.8c0,2.1-2.1,3.2-3.2,3.2h-19c-2.1,0-3.2-2.1-3.2-3.2V216c0-2.1,2.1-3.2,3.2-3.2h14.8    c2.1,0,3.2,1.1,3.2,2.1l2.1,7.4c12.7-6.3,30.7-12.7,47.6-12.7c19,0,33.9,5.3,43.4,15.9c20.1-10.6,40.2-15.9,58.2-15.9    c32.8,0,52.9,18,52.9,47.6v127c-2.1,2.1-4.2,4.2-7.4,4.2L1710.7,387.4z M1694.9,380h12.7V257.3c0-26.4-15.9-40.2-44.4-40.2    c-18,0-38.1,5.3-58.2,16.9c-2.1,1.1-3.2,1.1-5.3-1.1c-7.4-9.5-21.2-14.8-39.1-14.8s-37,7.4-48.7,13.8c-1.1,1.1-2.1,1.1-3.2,0    c-1.1-1.1-2.1-2.1-2.1-2.1l-2.1-8.5h-7.4v161.9h12.7V243.5c0-2.1,1.1-2.1,2.1-3.2c10.6-6.3,27.5-13.8,48.7-13.8    c23.3,0,37,12.7,37,38.1v119.6h12.7V261.5c0-4.2-1.1-8.5-2.1-13.8c0-2.1,0-3.2,2.1-4.2c18-10.6,36-16.9,51.8-16.9    c23.3,0,37,12.7,37,38.1v117.4h-2.1L1694.9,380z"/>
		<path class="st0" d="M1893.8,216L1825,402.2c-13.8,38.1-37,40.2-58.2,40.2c-6.3,0-12.7,0-16.9-2.1v-13.8c4.2,1.1,9.5,2.1,15.9,2.1    c13.8,0,30.7-3.2,40.2-30.7l4.2-13.8L1744.6,216h21.2l54,144.9l50.8-144.9H1893.8z"/>
		<path class="st0" d="M1766.8,447.7c-7.4,0-12.7-1.1-18-2.1c-2.1-1.1-2.1-2.1-2.1-3.2v-13.8c0-1.1,1.1-2.1,2.1-3.2    c1.1-1.1,2.1-1.1,3.2-1.1c4.2,1.1,10.6,2.1,14.8,2.1c13.8,0,27.5-3.2,37-27.5l3.2-12.7l-64.5-167.2c-1.1-1.1,0-2.1,0-3.2    c1.1-1.1,2.1-2.1,3.2-2.1h21.2c2.1,0,3.2,1.1,3.2,2.1l50.8,135.4l47.6-135.4c1.1-2.1,2.1-2.1,3.2-2.1h22.2c1.1,0,2.1,1.1,3.2,2.1    c1.1,1.1,1.1,2.1,1.1,3.2l-69.8,187.3c-14.8,39.1-39.1,43.4-61.4,43.4V447.7z M1754.1,439.3c3.2,1.1,7.4,1.1,12.7,1.1    c20.1,0,40.2-2.1,52.9-38.1l67.7-180.9h-12.7L1825,364.1c-1.1,2.1-2.1,2.1-3.2,2.1c-2.1,0-3.2-1.1-3.2-2.1l-52.9-142.8h-12.7    l63.5,162.9c0,1.1,0,2.1,0,2.1l-4.2,13.8c-10.6,29.6-28.6,32.8-43.4,32.8c-5.3,0-8.5,0-12.7-1.1v6.3h-1.1L1754.1,439.3z"/>
		<path class="st0" d="M877.1,384.2V159.9h19v67.7c0,0,0,9.5,0,14.8v141.8H877.1z"/>
		<path class="st0" d="M897.2,387.4h-19c-2.1,0-3.2-2.1-3.2-3.2V159.9c0-2.1,2.1-3.2,3.2-3.2h19c2.1,0,3.2,2.1,3.2,3.2v224.3    C901.4,386.4,899.3,387.4,897.2,387.4z M881.3,380H894V163.1h-12.7V380z"/>
		<path class="st0" d="M2010.2,384.2V159.9h55c61.4,0,84.6,23.3,84.6,61.4v13.8c0,36-23.3,58.2-84.6,58.2h-32.8v91H2010.2z     M2032.4,174.8v103.7h33.9c43.4,0,63.5-12.7,63.5-43.4v-12.7c0-32.8-19-47.6-61.4-47.6H2032.4z"/>
		<path class="st0" d="M2031.3,392.7h-22.2c-4.2,0-8.5-3.2-8.5-8.5V159.9c0-4.2,3.2-8.5,8.5-8.5h55c32.8,0,55,6.3,70.9,18    c14.8,11.6,23.3,28.6,23.3,51.8v13.8c0,22.2-7.4,38.1-23.3,48.7c-15.9,11.6-38.1,16.9-70.9,16.9h-24.3v82.5    C2039.8,388.5,2036.6,392.7,2031.3,392.7z M2018.6,374.7h4.2v-82.5c0-3.2,2.1-6.3,4.2-7.4c-2.1-2.1-4.2-4.2-4.2-7.4V174.8    c0-2.1,1.1-4.2,2.1-6.3h-7.4v206.3H2018.6z M2116,175.8c1.1,1.1,2.1,2.1,3.2,2.1c12.7,9.5,18,23.3,18,43.4V234    c0,18-6.3,31.7-18,40.2c2.1-1.1,5.3-2.1,7.4-4.2c10.6-7.4,15.9-19,15.9-34.9v-15.9C2142.4,203.3,2138.2,186.4,2116,175.8z     M2040.8,268.9h25.4c45.5,0,54-12.7,54-34.9v-12.7c0-20.1-6.3-38.1-52.9-38.1h-26.4V270V268.9z"/>
		<path class="st0" d="M2180.5,335.6c0-27.5,20.1-43.4,62.4-43.4h46.6v-36c0-21.2-11.6-29.6-40.2-29.6c-27.5,0-38.1,8.5-38.1,29.6    v7.4h-19v-8.5c0-29.6,19-43.4,59.2-43.4c43.4,0,58.2,14.8,58.2,43.4v129.1h-14.8l-3.2-12.7c-18,8.5-39.1,12.7-59.2,12.7    c-33.9,0-50.8-13.8-50.8-41.3v-9.5h1.1L2180.5,335.6z M2289.5,359.9v-54H2244c-29.6,0-43.4,8.5-43.4,28.6v9.5    c0,19,11.6,27.5,34.9,27.5c16.9,0,38.1-4.2,52.9-12.7L2289.5,359.9z"/>
		<path class="st0" d="M2231.3,394.8c-19,0-33.9-4.2-43.4-12.7c-10.6-8.5-15.9-21.2-15.9-38.1v-9.5c0-23.3,12.7-51.8,70.9-51.8h38.1    v-27.5c0-11.6-2.1-21.2-31.7-21.2c-27.5,0-29.6,8.5-29.6,21.2v7.4c0,4.2-3.2,8.5-8.5,8.5h-19c-4.2,0-8.5-3.2-8.5-8.5v-8.5    c0-18,6.3-30.7,18-39.1c11.6-7.4,27.5-12.7,49.7-12.7c23.3,0,39.1,4.2,50.8,12.7c11.6,8.5,16.9,21.2,16.9,38.1v129.1    c0,4.2-3.2,8.5-8.5,8.5h-14.8c-3.2,0-7.4-2.1-8.5-6.3l-1.1-2.1c-16.9,7.4-36,10.6-54,10.6L2231.3,394.8z M2295.8,366.3    c2.1,1.1,3.2,2.1,3.2,5.3l1.1,3.2V256.2c0-10.6-2.1-21.2-13.8-27.5c7.4,5.3,11.6,14.8,11.6,27.5v36c0,2.1-1.1,5.3-3.2,7.4    c2.1,2.1,3.2,4.2,3.2,7.4v54C2297.9,362,2296.9,364.1,2295.8,366.3z M2197.4,313.4c-7.4,7.4-8.5,15.9-8.5,23.3v9.5    c0,11.6,3.2,19,9.5,23.3c1.1,1.1,2.1,1.1,2.1,2.1c-7.4-7.4-9.5-16.9-9.5-25.4v-10.6C2191.1,326.1,2193.2,318.6,2197.4,313.4z     M2242.9,315.5c-31.7,0-33.9,9.5-33.9,20.1v9.5c0,9.5,2.1,19,26.4,19c15.9,0,32.8-3.2,45.5-9.5v-40.2h-38.1V315.5z M2199.5,257.3    h2.1c0-10.6,2.1-18,7.4-23.3c-6.3,4.2-8.5,12.7-8.5,23.3H2199.5z"/>
		<path class="st0" d="M2491.5,216l-68.8,186.2c-13.8,38.1-37,40.2-58.2,40.2c-6.3,0-12.7,0-16.9-2.1v-13.8    c4.2,1.1,9.5,2.1,15.9,2.1c13.8,0,30.7-3.2,40.2-30.7l4.2-13.8L2342.4,216h21.2l54,144.9l50.8-144.9H2491.5z"/>
		<path class="st0" d="M2364.6,452c-8.5,0-13.8-1.1-19-2.1c-3.2-1.1-6.3-4.2-6.3-8.5v-13.8c0-2.1,1.1-5.3,3.2-7.4    c2.1-2.1,5.3-2.1,7.4-2.1c3.2,1.1,9.5,1.1,13.8,1.1c11.6,0,24.3-2.1,32.8-24.3l3.2-11.6l-64.5-165c-1.1-2.1-1.1-5.3,1.1-7.4    s4.2-3.2,7.4-3.2h21.2c3.2,0,7.4,2.1,7.4,5.3l46.6,123.8l43.4-122.7c1.1-3.2,4.2-6.3,7.4-6.3h22.2c2.1,0,5.3,2.1,7.4,3.2    c2.1,2.1,2.1,5.3,1.1,7.4l-68.8,186.2c-14.8,42.3-40.2,47.6-65.6,47.6H2364.6z M2356.1,225.5l61.4,156.6c1.1,2.1,1.1,3.2,0,5.3    l-4.2,13.8c-2.1,5.3-4.2,10.6-7.4,14.8c2.1-4.2,5.3-9.5,7.4-16.9l12.7-33.9c-2.1,2.1-4.2,4.2-7.4,4.2c-3.2,0-7.4-2.1-7.4-5.3    l-52.9-139.7h-2.1V225.5z M2475.7,225.5L2428.1,361l49.7-135.4H2475.7z"/>
		<polygon class="st0" points="139.7,241.4 139.7,484.7 0,484.7   "/>
		<polygon class="st0" points="416.8,241.4 416.8,484.7 556.5,484.7   "/>
		<path class="st0" d="M287.8,296.4c27.5-2.1,52.9,2.1,69.8,9.5v-165L277.2,1.3l-79.3,139.7v190.4    C212.7,317.6,249.7,299.6,287.8,296.4z"/>
		<path class="st0" d="M358.7,367.3c-16.9-11.6-37-18-59.2-18c-39.1,0-70.9,24.3-88.9,54c-7.4,12.7-11.6,32.8-11.6,49.7    c0,11.6,2.1,22.2,5.3,31.7h154.5V366.3h-1.1L358.7,367.3z"/>
	</g>
</g>
</svg>
