<svg xmlns="http://www.w3.org/2000/svg" width="120" height="36" viewBox="0 0 120 36" fill="FFFFFF">
<path d="M17.1666 6.89239C16.4193 6.32183 15.5156 5.69276 14.5467 5.32336C13.5741 4.95259 12.5157 4.83629 11.4802 5.32202L11.4718 5.32594L11.4638 5.33055C9.68912 6.35245 9.41882 8.52358 9.727 10.6556C10.0379 12.8063 10.9497 15.0331 11.6921 16.3292L11.7802 16.4828L12.1925 16.353L12.1359 16.1483C11.6107 14.249 11.2834 12.2996 11.1592 10.3318C11.1242 9.23043 11.242 8.41442 11.4721 7.8442C11.6999 7.27958 12.0323 6.96631 12.4342 6.83581C12.8455 6.70229 13.3703 6.7467 14.0022 6.98602C14.6318 7.22445 15.3462 7.64846 16.1209 8.24082C20.225 11.4712 23.0401 16.2027 25.3386 20.822L25.7467 20.6625C24.2235 15.4355 21.4035 10.4704 17.1752 6.89898L17.1666 6.89239Z" fill="#FFFFFF"/>
<path d="M19.8047 7.98106H19.9242C20.7681 6.68296 22.2854 5.52892 23.7785 5.17885C24.5494 4.99813 25.3312 5.0281 26.0106 5.38501C26.6931 5.74349 27.2403 6.41504 27.5707 7.45411L27.5727 7.46038L27.5743 7.46676C28.0314 9.27169 27.5712 11.1267 26.8932 12.7044L26.836 12.8375H26.4092L26.4203 12.6071C26.4718 11.5319 26.4498 10.4544 26.3546 9.38229C26.228 8.22603 25.9172 7.48278 25.4219 7.11696C24.9389 6.76021 24.2046 6.71059 23.0875 7.13866L23.0806 7.14121C22.4533 7.35753 21.8433 7.65091 21.1946 7.96302C20.858 8.12497 20.5109 8.29198 20.1454 8.45585L19.9894 8.52578L19.8047 8.2932V7.98106Z" fill="#FFFFFF"/>
<path d="M18.0868 10.5035L17.747 10.2101L17.6024 10.3536C13.5911 14.3361 10.0802 20.3335 9.71527 26.1394L9.71518 26.1515C9.70347 27.6754 10.0006 28.7998 10.5277 29.5617C11.0603 30.3316 11.8148 30.7119 12.6627 30.7632C14.3331 30.8643 16.3381 29.6949 17.8336 27.8507L17.5442 27.5268C16.8427 27.9756 16.0859 28.4176 15.3495 28.7503C14.6097 29.0845 13.9081 29.3003 13.3126 29.3137C12.7271 29.3268 12.2607 29.1457 11.9409 28.6972C11.6105 28.2339 11.4102 27.4502 11.459 26.2002C11.7807 20.8814 14.936 15.0393 17.9739 10.6661L18.0868 10.5035Z" fill="#FFFFFF"/>
<path d="M23.1514 12.9232L23.088 13.3553C24.3668 13.7065 27.2389 14.5362 29.2101 15.7059C30.2047 16.296 30.9142 16.9411 31.123 17.6088C31.2239 17.9318 31.2106 18.2688 31.0417 18.6288C30.8706 18.9933 30.5352 19.3906 29.9755 19.8144C27.7723 21.2362 24.8982 22.0346 21.906 22.435C18.9136 22.8355 15.8204 22.8359 13.1972 22.674L13.1328 23.1076C15.8395 23.7515 19.0796 24.0733 22.2494 23.8413C25.4174 23.6093 28.5318 22.823 30.9734 21.2356L30.977 21.2333C32.2206 20.3894 32.8963 19.2818 32.9165 18.1405C32.9366 16.997 32.2977 15.8801 31.0387 15.0227L31.0363 15.0212C28.6979 13.4731 25.8497 12.9855 23.1514 12.9232Z" fill="#FFFFFF"/>
<path d="M9.54245 13.8957C7.86303 14.0531 6.07802 14.6376 4.85619 15.9817L4.85195 15.9864L4.84799 15.9913C4.18852 16.806 3.93979 17.6076 4.01208 18.3587C4.08398 19.1057 4.47015 19.7694 5.01701 20.3196C6.105 21.4144 7.87719 22.1102 9.35638 22.1755L10.1197 22.2092L9.49115 21.7748C9.27491 21.6253 9.0513 21.4759 8.82493 21.3247C8.44691 21.0721 8.0611 20.8143 7.68923 20.5427C7.09784 20.1108 6.57257 19.6653 6.22278 19.1974C5.8754 18.7327 5.71549 18.2665 5.81154 17.7778C5.90907 17.2816 6.27993 16.7117 7.10995 16.0665C7.9321 15.4304 8.78918 14.8416 9.6771 14.3028L9.54245 13.8957Z" fill="#FFFFFF"/>
<path d="M26.6238 23.6476H26.0455L26.1837 23.9543C26.1801 25.3688 26.0862 26.5034 25.879 27.3571C25.6664 28.2329 25.3443 28.773 24.9207 29.0378C24.505 29.2979 23.9324 29.3283 23.1278 29.0424C22.3228 28.7564 21.3226 28.166 20.0921 27.2452C19.0427 26.4496 18.0505 25.5454 17.0295 24.6149L16.8963 24.4935L16.5547 24.7609C17.6187 26.7233 19.0967 28.4271 20.8849 29.7519L20.891 29.7561C22.1587 30.6307 23.2908 31.0149 24.2506 30.9995C25.2183 30.9838 25.9908 30.5615 26.5204 29.8687C27.5549 28.5156 27.6398 26.1758 26.6238 23.8611V23.6476Z" fill="#FFFFFF"/>
<path d="M46.5088 21.4395C46.5088 21.1387 46.4622 20.8701 46.3691 20.6338C46.2832 20.3903 46.1221 20.1719 45.8857 19.9785C45.6566 19.778 45.3307 19.5846 44.9082 19.3984C44.4928 19.2051 43.9557 19.0046 43.2969 18.7969C42.5664 18.5677 41.8861 18.3099 41.2559 18.0234C40.6257 17.737 40.0706 17.404 39.5908 17.0244C39.1182 16.6449 38.7493 16.208 38.4844 15.7139C38.2194 15.2126 38.0869 14.6325 38.0869 13.9736C38.0869 13.3291 38.223 12.7419 38.4951 12.2119C38.7744 11.682 39.1683 11.2272 39.6768 10.8477C40.1852 10.4609 40.7832 10.1637 41.4707 9.95605C42.1654 9.74837 42.9316 9.64453 43.7695 9.64453C44.9297 9.64453 45.9323 9.85579 46.7773 10.2783C47.6296 10.7008 48.2884 11.2738 48.7539 11.9971C49.2194 12.7204 49.4521 13.5332 49.4521 14.4355H46.5088C46.5088 13.9486 46.4049 13.5189 46.1973 13.1465C45.9967 12.7741 45.6888 12.4805 45.2734 12.2656C44.8652 12.0508 44.3496 11.9434 43.7266 11.9434C43.125 11.9434 42.6237 12.0329 42.2227 12.2119C41.8288 12.391 41.5316 12.6344 41.3311 12.9424C41.1377 13.2503 41.041 13.5941 41.041 13.9736C41.041 14.2601 41.109 14.5179 41.2451 14.7471C41.3812 14.9691 41.5853 15.1803 41.8574 15.3809C42.1296 15.5742 42.4661 15.7568 42.8672 15.9287C43.2754 16.0934 43.748 16.2581 44.2852 16.4229C45.1445 16.6807 45.8965 16.9671 46.541 17.2822C47.1927 17.5973 47.7334 17.9554 48.1631 18.3564C48.5999 18.7575 48.9258 19.2087 49.1406 19.71C49.3626 20.2113 49.4736 20.7806 49.4736 21.418C49.4736 22.0911 49.3411 22.6927 49.0762 23.2227C48.8112 23.7526 48.4316 24.2038 47.9375 24.5762C47.4434 24.9486 46.849 25.2314 46.1543 25.4248C45.4668 25.6182 44.6969 25.7148 43.8447 25.7148C43.0856 25.7148 42.3337 25.6146 41.5889 25.4141C40.8512 25.2064 40.1816 24.8984 39.5801 24.4902C38.9785 24.0749 38.4987 23.5521 38.1406 22.9219C37.7826 22.2845 37.6035 21.5397 37.6035 20.6875H40.5684C40.5684 21.1816 40.6471 21.6042 40.8047 21.9551C40.9694 22.2988 41.1986 22.5817 41.4922 22.8037C41.793 23.0186 42.1439 23.1761 42.5449 23.2764C42.946 23.3766 43.3792 23.4268 43.8447 23.4268C44.4463 23.4268 44.9404 23.3444 45.3271 23.1797C45.721 23.0078 46.0146 22.7715 46.208 22.4707C46.4085 22.1699 46.5088 21.8262 46.5088 21.4395ZM54.3295 22.707L56.8754 13.877H58.6801L58.143 16.9277L55.5756 25.5H54.018L54.3295 22.707ZM52.9223 13.877L54.8344 22.7285L55.0063 25.5H53.2123L50.1616 13.877H52.9223ZM61.0434 22.5996L62.9125 13.877H65.6625L62.6332 25.5H60.8393L61.0434 22.5996ZM58.9594 13.877L61.4838 22.6211L61.8168 25.5H60.2592L57.6704 16.9277L57.144 13.877H58.9594ZM73.3007 23.0293V17.6689C73.3007 17.2751 73.2326 16.9349 73.0966 16.6484C72.9605 16.362 72.7528 16.14 72.4735 15.9824C72.1942 15.8249 71.8397 15.7461 71.41 15.7461C71.0305 15.7461 70.6975 15.8105 70.411 15.9395C70.1317 16.0684 69.9169 16.251 69.7665 16.4873C69.6161 16.7165 69.5409 16.9814 69.5409 17.2822H66.6942C66.6942 16.8024 66.8088 16.3477 67.038 15.918C67.2671 15.4811 67.593 15.0944 68.0155 14.7578C68.4452 14.4141 68.9572 14.1455 69.5516 13.9521C70.1532 13.7588 70.8264 13.6621 71.5712 13.6621C72.452 13.6621 73.2362 13.8125 73.9237 14.1133C74.6184 14.4069 75.1626 14.8509 75.5565 15.4453C75.9576 16.0397 76.1581 16.7881 76.1581 17.6904V22.7607C76.1581 23.3408 76.1939 23.8385 76.2655 24.2539C76.3443 24.6621 76.4589 25.0166 76.6093 25.3174V25.5H73.7196C73.5835 25.2064 73.4797 24.834 73.4081 24.3828C73.3365 23.9245 73.3007 23.4733 73.3007 23.0293ZM73.6981 18.4209L73.7196 20.1074H71.9257C71.4817 20.1074 71.0914 20.154 70.7548 20.2471C70.4182 20.333 70.1425 20.4619 69.9276 20.6338C69.7128 20.7985 69.5516 20.999 69.4442 21.2354C69.3368 21.4645 69.2831 21.7259 69.2831 22.0195C69.2831 22.306 69.3475 22.5638 69.4764 22.793C69.6125 23.0221 69.8059 23.2048 70.0565 23.3408C70.3143 23.4697 70.6151 23.5342 70.9589 23.5342C71.4602 23.5342 71.897 23.4339 72.2694 23.2334C72.6418 23.0257 72.9318 22.7751 73.1395 22.4814C73.3472 22.1878 73.4582 21.9085 73.4725 21.6436L74.2889 22.8682C74.1887 23.1618 74.0383 23.4733 73.8378 23.8027C73.6373 24.1322 73.3794 24.4401 73.0643 24.7266C72.7492 25.013 72.3697 25.2493 71.9257 25.4355C71.4817 25.6217 70.966 25.7148 70.3788 25.7148C69.6268 25.7148 68.9537 25.5645 68.3593 25.2637C67.7649 24.9629 67.2958 24.5511 66.952 24.0283C66.6083 23.5055 66.4364 22.9111 66.4364 22.2451C66.4364 21.6292 66.551 21.085 66.7802 20.6123C67.0093 20.1396 67.3495 19.7422 67.8007 19.4199C68.2518 19.0905 68.8104 18.8434 69.4764 18.6787C70.1496 18.5068 70.9195 18.4209 71.786 18.4209H73.6981ZM81.1107 16.1113V29.9688H78.264V13.877H80.8958L81.1107 16.1113ZM88.5765 19.5703V19.7959C88.5765 20.641 88.4762 21.4251 88.2757 22.1484C88.0823 22.8646 87.7959 23.4912 87.4163 24.0283C87.0368 24.5583 86.5641 24.9736 85.9984 25.2744C85.4398 25.568 84.7952 25.7148 84.0648 25.7148C83.3486 25.7148 82.7256 25.5788 82.1956 25.3066C81.6657 25.0273 81.2181 24.6335 80.8529 24.125C80.4876 23.6165 80.194 23.0257 79.972 22.3525C79.7571 21.6722 79.596 20.931 79.4886 20.1289V19.4092C79.596 18.557 79.7571 17.7835 79.972 17.0889C80.194 16.387 80.4876 15.7819 80.8529 15.2734C81.2181 14.7578 81.6621 14.3604 82.1849 14.0811C82.7148 13.8018 83.3343 13.6621 84.0433 13.6621C84.7809 13.6621 85.429 13.8018 85.9876 14.0811C86.5534 14.3604 87.0296 14.7614 87.4163 15.2842C87.803 15.807 88.0931 16.43 88.2864 17.1533C88.4798 17.8766 88.5765 18.6823 88.5765 19.5703ZM85.7298 19.7959V19.5703C85.7298 19.0547 85.6833 18.5785 85.5902 18.1416C85.4971 17.6976 85.3538 17.3109 85.1605 16.9814C84.9671 16.6449 84.7165 16.3835 84.4085 16.1973C84.1006 16.0111 83.7282 15.918 83.2913 15.918C82.8545 15.918 82.4785 15.9896 82.1634 16.1328C81.8483 16.276 81.5905 16.4801 81.39 16.7451C81.1894 17.0101 81.0319 17.3252 80.9173 17.6904C80.8099 18.0485 80.7383 18.446 80.7025 18.8828V20.666C80.7669 21.196 80.8922 21.6722 81.0784 22.0947C81.2646 22.5173 81.5368 22.8538 81.8948 23.1045C82.2601 23.3551 82.7327 23.4805 83.3128 23.4805C83.7497 23.4805 84.1221 23.3838 84.43 23.1904C84.7379 22.9971 84.9886 22.7321 85.182 22.3955C85.3753 22.0518 85.515 21.6579 85.6009 21.2139C85.6868 20.7699 85.7298 20.2972 85.7298 19.7959ZM96.6013 22.3203C96.6013 22.0768 96.5369 21.8584 96.408 21.665C96.2791 21.4717 96.0356 21.2962 95.6775 21.1387C95.3266 20.974 94.811 20.82 94.1306 20.6768C93.5291 20.5479 92.9741 20.3867 92.4656 20.1934C91.9571 20 91.5203 19.7673 91.155 19.4951C90.7898 19.2158 90.5033 18.89 90.2957 18.5176C90.0951 18.138 89.9949 17.7012 89.9949 17.207C89.9949 16.7272 90.0987 16.276 90.3064 15.8535C90.5141 15.4238 90.8149 15.0479 91.2088 14.7256C91.6026 14.3962 92.0824 14.1383 92.6482 13.9521C93.214 13.7588 93.8513 13.6621 94.5603 13.6621C95.5486 13.6621 96.3972 13.8232 97.1062 14.1455C97.8224 14.4678 98.3702 14.9118 98.7498 15.4775C99.1293 16.0361 99.3191 16.6663 99.3191 17.3682H96.4832C96.4832 17.0602 96.4116 16.7809 96.2683 16.5303C96.1323 16.2796 95.921 16.0791 95.6345 15.9287C95.3481 15.7712 94.9864 15.6924 94.5496 15.6924C94.1557 15.6924 93.8227 15.7568 93.5505 15.8857C93.2856 16.0146 93.0851 16.1829 92.949 16.3906C92.8129 16.5983 92.7449 16.8275 92.7449 17.0781C92.7449 17.2643 92.7807 17.4326 92.8523 17.583C92.9311 17.7262 93.0564 17.8587 93.2283 17.9805C93.4002 18.1022 93.6329 18.2132 93.9265 18.3135C94.2273 18.4137 94.5961 18.5104 95.033 18.6035C95.8995 18.7754 96.655 19.0046 97.2996 19.291C97.9513 19.5703 98.4597 19.9427 98.825 20.4082C99.1902 20.8737 99.3728 21.4681 99.3728 22.1914C99.3728 22.707 99.2618 23.1797 99.0398 23.6094C98.8178 24.0319 98.4955 24.4007 98.073 24.7158C97.6505 25.0309 97.1456 25.278 96.5584 25.457C95.9711 25.6289 95.3087 25.7148 94.5711 25.7148C93.504 25.7148 92.6017 25.5251 91.864 25.1455C91.1264 24.7588 90.5678 24.2718 90.1882 23.6846C89.8087 23.0902 89.6189 22.4743 89.6189 21.8369H92.3367C92.3582 22.2881 92.4799 22.6497 92.7019 22.9219C92.9239 23.194 93.2032 23.391 93.5398 23.5127C93.8836 23.6273 94.2452 23.6846 94.6248 23.6846C95.0545 23.6846 95.4161 23.6273 95.7097 23.5127C96.0033 23.391 96.2254 23.2298 96.3757 23.0293C96.5261 22.8216 96.6013 22.5853 96.6013 22.3203ZM100.745 24.5762C100.745 24.2897 100.843 24.0486 101.038 23.8529C101.234 23.6571 101.499 23.5592 101.833 23.5592C102.167 23.5592 102.432 23.6571 102.628 23.8529C102.824 24.0486 102.922 24.2897 102.922 24.5762C102.922 24.8579 102.824 25.0966 102.628 25.2923C102.432 25.4833 102.167 25.5788 101.833 25.5788C101.499 25.5788 101.234 25.4833 101.038 25.2923C100.843 25.0966 100.745 24.8579 100.745 24.5762ZM106.546 17.7513V25.5H104.648V17.7513H106.546ZM104.519 15.7246C104.519 15.4429 104.615 15.209 104.805 15.0228C105.001 14.8366 105.264 14.7435 105.593 14.7435C105.923 14.7435 106.183 14.8366 106.374 15.0228C106.57 15.209 106.667 15.4429 106.667 15.7246C106.667 16.0015 106.57 16.2331 106.374 16.4193C106.183 16.6055 105.923 16.6986 105.593 16.6986C105.264 16.6986 105.001 16.6055 104.805 16.4193C104.615 16.2331 104.519 16.0015 104.519 15.7246ZM107.72 21.7044V21.554C107.72 20.9859 107.802 20.4631 107.964 19.9857C108.126 19.5035 108.363 19.0857 108.673 18.7324C108.983 18.3791 109.363 18.1046 109.812 17.9089C110.26 17.7083 110.771 17.6081 111.344 17.6081C111.927 17.6081 112.442 17.7083 112.891 17.9089C113.345 18.1046 113.727 18.3791 114.037 18.7324C114.347 19.0857 114.584 19.5035 114.746 19.9857C114.908 20.4631 114.989 20.9859 114.989 21.554V21.7044C114.989 22.2678 114.908 22.7906 114.746 23.2728C114.584 23.7502 114.347 24.168 114.037 24.526C113.727 24.8793 113.347 25.1539 112.898 25.3496C112.449 25.5454 111.936 25.6432 111.359 25.6432C110.786 25.6432 110.272 25.5454 109.819 25.3496C109.365 25.1539 108.983 24.8793 108.673 24.526C108.363 24.168 108.126 23.7502 107.964 23.2728C107.802 22.7906 107.72 22.2678 107.72 21.7044ZM109.611 21.554V21.7044C109.611 22.0434 109.645 22.3609 109.711 22.6569C109.778 22.9529 109.881 23.2131 110.019 23.4375C110.158 23.6619 110.337 23.8385 110.556 23.9674C110.781 24.0916 111.048 24.1536 111.359 24.1536C111.664 24.1536 111.927 24.0916 112.146 23.9674C112.366 23.8385 112.545 23.6619 112.683 23.4375C112.827 23.2131 112.932 22.9529 112.998 22.6569C113.065 22.3609 113.099 22.0434 113.099 21.7044V21.554C113.099 21.2198 113.065 20.9071 112.998 20.6159C112.932 20.3199 112.827 20.0597 112.683 19.8353C112.545 19.6061 112.364 19.4271 112.139 19.2982C111.919 19.1645 111.655 19.0977 111.344 19.0977C111.039 19.0977 110.776 19.1645 110.556 19.2982C110.337 19.4271 110.158 19.6061 110.019 19.8353C109.881 20.0597 109.778 20.3199 109.711 20.6159C109.645 20.9071 109.611 21.2198 109.611 21.554Z" fill="white"/>
</svg>
